<svg width="24" height="24" viewBox="0 0 24 24" fill="none" xmlns="http://www.w3.org/2000/svg">
<path d="M12 0C5.4 0 0 5.4 0 12C0 18.6 5.4 24 12 24C18.6 24 24 18.6 24 12C24 5.4 18.6 0 12 0ZM16.92 18C16.692 18 16.512 17.88 16.26 17.676L10.068 12.672L7.992 17.88H6.204L11.448 5.268C11.58 4.932 11.868 4.764 12.204 4.764C12.54 4.764 12.804 4.932 12.948 5.268L17.724 16.764C17.772 16.896 17.808 17.028 17.808 17.112C17.796 17.616 17.4 18 16.92 18ZM12.204 7.332L15.312 15L10.62 11.304L12.204 7.332Z" fill="white"/>
</svg>
