<svg width="24" height="24" viewBox="0 0 24 24" fill="none" xmlns="http://www.w3.org/2000/svg">
<path d="M12.5302 0.399933C12.9528 0.435745 13.374 0.496495 13.79 0.58087C15.4175 0.95212 16.8142 1.7565 18.0373 2.8725C19.163 3.9 19.8954 5.17237 20.3011 6.63562C20.3868 6.94631 20.51 7.17843 20.8689 7.23993C21.068 7.27443 21.1003 7.47731 21.101 7.6575C21.104 8.2845 21.1025 8.91131 21.1025 9.53831C21.1024 9.92943 21.1019 10.3206 21.101 10.7117C21.0995 11.0559 20.9881 11.1754 20.6499 11.1701C20.4448 11.1673 20.3649 11.2866 20.3152 11.4529C20.1745 11.9272 19.9956 12.3894 19.7805 12.8349C18.9881 14.4662 17.7605 15.6827 16.2048 16.5872C16.1307 16.6301 16.0555 16.6723 15.9793 16.7139C15.7353 16.8471 15.7295 16.8553 15.8291 17.1159C15.8837 17.259 15.97 17.3879 16.0815 17.4929C16.1929 17.5979 16.3267 17.6764 16.4728 17.7225C16.7336 17.8162 17.0083 17.8519 17.2741 17.9259C17.3553 17.9413 17.4337 17.9722 17.504 18.0159C17.4397 18.0966 17.3525 18.0821 17.2792 18.0966C16.9305 18.1671 16.5886 18.2747 16.226 18.2608C16.0821 18.2651 15.9386 18.2442 15.8019 18.1991C15.6913 18.1552 15.654 18.1926 15.6313 18.3054C15.5782 18.5996 15.5511 18.8979 15.5501 19.1968C15.5353 19.7944 15.4818 20.3893 15.441 20.9846C15.4006 21.5632 15.4233 21.6159 15.9821 21.8012C16.2545 21.8912 16.5277 21.9821 16.7981 22.0781C16.8656 22.1016 16.9438 22.1156 16.9848 22.191C16.946 22.2459 16.8896 22.2253 16.8427 22.2253C16.3651 22.2276 15.8876 22.2298 15.4102 22.2261C14.9019 22.2217 14.6287 21.9529 14.5912 21.4476C14.537 20.7084 14.475 19.9701 14.4148 19.2319C14.4085 19.1924 14.4002 19.1533 14.3898 19.1147C14.313 19.5564 14.3261 19.9665 14.3086 20.3747C14.285 20.8851 14.3006 21.3977 14.3011 21.9097C14.3011 22.1711 14.384 22.2853 14.6255 22.377C14.9743 22.5088 15.3155 22.6633 15.7061 22.6311C15.843 22.6202 15.9733 22.6911 16.0965 22.7563C16.1265 22.7724 16.1668 22.7878 16.163 22.8266C16.1587 22.8692 16.1146 22.8727 16.0818 22.8712C15.4438 22.8516 14.8044 22.9335 14.1693 22.8435C13.8566 22.7996 13.6524 22.6149 13.5571 22.3087C13.4655 22.0144 13.4473 21.7097 13.4253 21.4072C13.3805 20.8001 13.349 20.1915 13.3125 19.5842C13.3146 19.554 13.3105 19.5238 13.3004 19.4953C13.2903 19.4668 13.2744 19.4407 13.2538 19.4186C13.2217 19.4758 13.2106 19.5418 13.223 19.6054C13.2218 20.5317 13.2216 21.458 13.2225 22.3841C13.2225 22.7608 13.341 22.9423 13.7013 23.0706C14.1673 23.2374 14.6469 23.3599 15.126 23.4806C15.2328 23.5078 15.3442 23.5262 15.3611 23.6668H13.566C13.5153 23.6572 13.4655 23.6454 13.415 23.6381C12.7346 23.5406 12.4445 23.2762 12.3069 22.6275C12.2842 22.5206 12.2643 22.4137 12.2424 22.3074C12.1695 21.9507 12.0965 21.594 12.0234 21.2374C11.9559 21.3534 11.9084 21.4799 11.8828 21.6116C11.8021 21.999 11.7363 22.3894 11.6476 22.7747C11.5378 23.2522 11.217 23.5144 10.7439 23.6059C10.6376 23.6265 10.5307 23.6462 10.4246 23.6668H8.62926C8.68495 23.5005 8.83889 23.4874 8.97426 23.4514C9.43495 23.3291 9.90445 23.2361 10.3483 23.0567C10.4542 23.0182 10.5468 22.9499 10.615 22.8601C10.6832 22.7704 10.7241 22.6628 10.7328 22.5504C10.7893 22.1293 10.7343 21.7127 10.7197 21.2944C10.7056 21.1901 10.6804 21.0877 10.6443 20.9889C10.6034 21.0482 10.5795 21.1176 10.5753 21.1896C10.5498 21.4761 10.5277 21.7624 10.503 22.0489C10.4655 22.4677 10.2386 22.7432 9.84445 22.8332C9.7271 22.8613 9.60699 22.8763 9.48633 22.878C8.94577 22.8808 8.4052 22.8765 7.86389 22.8727C7.81702 22.8727 7.75852 22.8919 7.7212 22.8105C7.89363 22.7093 8.08615 22.6471 8.2852 22.6282C8.59336 22.5917 8.89787 22.5293 9.19551 22.4415C9.60201 22.3309 9.70083 22.2004 9.69051 21.7757C9.66858 20.8732 9.60351 19.9725 9.6247 19.0693C9.62901 18.8912 9.62545 18.7134 9.62545 18.5353C9.5992 18.6585 9.58289 18.7837 9.57633 18.909C9.54708 19.7584 9.48108 20.6059 9.39633 21.4519C9.34645 21.9493 9.10908 22.1769 8.61764 22.2326C8.1847 22.2817 7.75627 22.2334 7.32633 22.212C7.22095 22.2071 7.09945 22.2238 6.99745 22.1499C7.03927 22.0869 7.10002 22.0832 7.1527 22.0665C7.50295 21.9551 7.85583 21.849 8.20458 21.7331C8.44327 21.654 8.54508 21.5046 8.54958 21.255C8.55089 21.18 8.55164 21.1056 8.54583 21.0307C8.49164 20.337 8.46595 19.6429 8.44477 18.9476C8.44011 18.7927 8.4286 18.638 8.41027 18.4841C8.38777 18.3017 8.2837 18.2051 8.1247 18.2344C7.63477 18.3223 7.16452 18.2286 6.69727 18.0996C6.63933 18.0834 6.56752 18.0915 6.52439 18.0146C6.61158 17.9715 6.70383 17.9415 6.79983 17.9267C7.0477 17.8761 7.29188 17.8088 7.5307 17.7253C7.68019 17.6717 7.81711 17.588 7.93301 17.4794C8.04891 17.3709 8.14133 17.2397 8.20458 17.094C8.29027 16.8971 8.25801 16.7865 8.09545 16.7079C6.72145 16.0461 5.66002 15.0315 4.80895 13.7835C4.31684 13.0585 3.94858 12.2568 3.7192 11.4111C3.65395 11.1724 3.56827 11.1197 3.34852 11.1585C3.05114 11.2112 2.95964 11.1643 2.83008 10.8941V7.51106C2.9692 7.21725 3.02845 7.17993 3.3472 7.19231C3.57483 7.20112 3.58664 7.18725 3.64739 6.95662C4.0312 5.49543 4.69552 4.1835 5.7517 3.0915C7.02239 1.77693 8.59645 1.01156 10.3578 0.596245C10.8003 0.492183 11.2515 0.45037 11.7018 0.399933H12.5302ZM20.2608 9.07462C20.2646 8.77074 20.249 8.46694 20.214 8.16506C20.1899 7.95389 20.1577 7.74374 20.1174 7.53506C19.538 4.66256 17.8455 2.66887 15.2212 1.45893C13.7152 0.76537 12.1091 0.648933 10.4925 0.963933C7.34339 1.57687 5.2612 3.46725 4.15364 6.44306C3.73045 7.57987 3.67402 8.77518 3.79477 9.98062C3.8795 10.887 4.12376 11.7712 4.51627 12.5925C5.08383 13.7689 5.9167 14.7319 6.91851 15.5574C7.24991 15.8346 7.61483 16.0691 8.0047 16.2553C8.23252 16.3616 8.24358 16.3556 8.24283 16.1134C8.24864 15.9579 8.24508 15.8021 8.23345 15.6474C8.11158 14.6587 8.0947 13.6648 8.06995 12.6716C8.07321 12.604 8.05837 12.5367 8.02696 12.4767C7.99555 12.4167 7.94871 12.3662 7.89127 12.3304C7.51852 12.0703 7.19977 11.7553 6.99764 11.3422C6.5392 10.4025 6.63727 9.05287 7.78645 8.226C7.91827 8.13056 7.99739 8.04037 7.97845 7.86412C7.97039 7.72052 7.98073 7.57648 8.0092 7.4355C8.17983 6.285 8.73295 5.36287 9.67758 4.68168C10.3383 4.20543 11.0758 3.93375 11.8938 3.92362C12.362 3.91781 12.8182 4.0305 13.265 4.16025C14.8245 4.61343 16.0241 6.16781 16.0226 7.74468C16.0156 7.8506 16.0359 7.95654 16.0814 8.05243C16.1269 8.14832 16.1962 8.23098 16.2826 8.29256C16.7315 8.65143 17.0788 9.09675 17.1967 9.67537C17.4099 10.719 17.1168 11.5965 16.2481 12.2286C15.9896 12.4161 15.912 12.6212 15.9245 12.9045C15.9266 12.9506 15.9253 12.9967 15.923 13.0431C15.9033 13.5074 15.8833 13.9722 15.863 14.4375C15.8381 15.0051 15.7305 15.5676 15.7501 16.1389C15.7576 16.3543 15.7552 16.3571 15.9442 16.2619C16.8363 15.8134 17.6262 15.1856 18.2645 14.4178C19.544 12.8878 20.2751 11.1482 20.2612 9.07462H20.2608ZM9.17208 12.1326C9.50331 12.1371 9.82986 12.0539 10.1185 11.8915C10.4072 11.729 10.6477 11.493 10.8157 11.2074C10.9833 10.9216 11.0723 10.5965 11.0737 10.2652C11.0751 9.93387 10.9889 9.60806 10.8238 9.32081C10.6583 9.03364 10.4197 8.79541 10.1323 8.63035C9.84488 8.46528 9.51889 8.37927 9.18745 8.38106C8.12695 8.37675 7.29408 9.17718 7.28977 10.2041C7.28527 11.3166 8.07783 12.1282 9.17208 12.1326ZM14.7883 12.1326C15.8561 12.1348 16.6648 11.3334 16.664 10.2744C16.664 9.216 15.8452 8.38481 14.8036 8.38687C13.7716 8.38837 12.9228 9.22556 12.9198 10.2429C12.917 11.3136 13.7248 12.1311 14.7883 12.1326ZM13.3614 14.0106C13.1595 14.1343 12.9676 14.2787 12.7515 14.3826C12.2313 14.6316 11.7202 14.6316 11.22 14.3357C11.0668 14.2449 10.9218 14.1409 10.7701 14.0471C10.7248 14.0194 10.6809 13.9468 10.6245 13.9871C10.5819 14.0164 10.6156 14.0829 10.6237 14.1334C10.6597 14.3072 10.6867 14.4836 10.7036 14.6608C10.7293 15.2079 10.9871 15.6217 11.4236 15.9302C11.531 16.0131 11.655 16.0721 11.7871 16.1032C11.9193 16.1342 12.0566 16.1366 12.1897 16.1102C12.7376 15.996 13.1835 15.5149 13.2795 14.9297C13.3213 14.6719 13.284 14.403 13.385 14.1519C13.3957 14.1287 13.3992 14.1028 13.395 14.0776C13.3909 14.0524 13.379 14.0291 13.3614 14.0106Z" fill="white"/>
<path d="M4.84982 9.24018C4.83745 8.17237 4.9882 7.24799 5.37351 6.36993C5.98663 4.97099 6.96576 3.89437 8.26138 3.09881C8.33234 3.05884 8.41453 3.04349 8.49512 3.05516C8.57572 3.06683 8.65018 3.10486 8.70688 3.16331C8.76538 3.222 8.74195 3.27825 8.71701 3.33693C8.62053 3.54816 8.45709 3.72168 8.25201 3.83062C7.20538 4.45012 6.47882 5.35312 5.96751 6.43725C5.53361 7.33822 5.3274 8.33189 5.36695 9.33112C5.42132 10.5996 5.79313 11.7714 6.54313 12.8092C6.62867 12.9107 6.68649 13.0326 6.71095 13.1631C6.72126 13.2414 6.76813 13.3264 6.6817 13.3843C6.64183 13.4132 6.59553 13.432 6.5468 13.439C6.49806 13.446 6.44835 13.4411 6.40195 13.4246C6.30984 13.3892 6.23066 13.3266 6.17488 13.2452C5.47682 12.2966 5.01838 11.2521 4.88488 10.0716C4.84926 9.75581 4.88057 9.43949 4.84982 9.24018ZM8.99976 2.66887C8.99878 2.62016 9.00755 2.57175 9.02555 2.52648C9.04355 2.48121 9.07042 2.43999 9.10457 2.40525C9.1389 2.37077 9.17977 2.34349 9.22478 2.32501C9.26979 2.30653 9.31804 2.29722 9.3667 2.29762C9.57182 2.29912 9.76288 2.51737 9.76945 2.75756C9.77245 2.89012 9.47001 3.13556 9.3082 3.13031C9.12576 3.126 8.99976 2.937 8.99976 2.66887ZM8.54863 9.92062C8.54321 9.76396 8.60002 9.61153 8.70665 9.49664C8.81329 9.38175 8.96107 9.31374 9.1177 9.30749C9.48613 9.30618 9.76813 9.57056 9.7717 9.92212C9.77545 10.2664 9.50957 10.5249 9.1522 10.5234C8.78282 10.5227 8.55013 10.2898 8.54845 9.92062H8.54863ZM14.8475 10.5234C14.4768 10.5212 14.2409 10.2767 14.2454 9.89793C14.2498 9.74457 14.3115 9.5984 14.4183 9.48829C14.5252 9.37818 14.6694 9.31213 14.8226 9.30318C14.9913 9.30017 15.1543 9.36415 15.2759 9.48112C15.3975 9.59809 15.4678 9.75849 15.4713 9.92718C15.4723 10.2694 15.2041 10.5257 14.8473 10.5234H14.8475Z" fill="white"/>
</svg>
