<svg width="24" height="24" viewBox="0 0 24 24" fill="none" xmlns="http://www.w3.org/2000/svg">
<g clip-path="url(#clip0_2343_6)">
<path d="M8.24705 0.872434C8.47897 0.872447 8.70504 0.945226 8.89342 1.08052C9.08179 1.21581 9.22296 1.40679 9.29705 1.62656L16.0302 21.5758C16.0865 21.7426 16.1023 21.9204 16.0763 22.0945C16.0503 22.2686 15.9831 22.434 15.8804 22.5769C15.7778 22.7199 15.6425 22.8364 15.4858 22.9167C15.3292 22.997 15.1556 23.0388 14.9796 23.0387H22.7384C22.9143 23.0385 23.0876 22.9964 23.2441 22.9161C23.4006 22.8357 23.5357 22.7193 23.6384 22.5765C23.741 22.4335 23.8082 22.2681 23.8342 22.094C23.8602 21.9198 23.8444 21.742 23.788 21.5752L17.0554 1.626C16.9813 1.40617 16.8401 1.21514 16.6516 1.07984C16.4632 0.944548 16.237 0.871806 16.0051 0.871872L8.24705 0.872434ZM7.99655 0.962059C7.76422 0.962054 7.53774 1.03495 7.34903 1.17048C7.16032 1.30601 7.01889 1.49733 6.94468 1.7175L0.212489 21.6656C0.156223 21.8323 0.140461 22.01 0.166506 22.184C0.192551 22.358 0.259655 22.5233 0.362266 22.6663C0.464877 22.8092 0.600045 22.9256 0.756587 23.0059C0.91313 23.0862 1.08655 23.1281 1.26249 23.1281H6.67993C6.91224 23.1281 7.13855 23.0512 7.32718 22.9194C7.51587 22.784 7.65733 22.5928 7.73161 22.3727L9.04768 18.4896L6.53311 16.0789C6.48699 16.0277 6.27943 15.6525 6.46393 15.3285C6.67168 15.0174 7.01799 15.0174 7.01799 15.0174H10.2589L11.9603 10.1152L9.05161 1.56018C9.04374 1.52175 8.88024 1.30425 8.62393 1.13268C8.36705 0.961122 7.99674 0.962247 7.99674 0.962247L7.99655 0.962059ZM7.08155 15.1633C6.97891 15.1632 6.8786 15.1939 6.7937 15.2516C6.7088 15.3093 6.64326 15.3912 6.60561 15.4867C6.56797 15.5822 6.55997 15.6868 6.58265 15.7869C6.60534 15.8871 6.65766 15.978 6.7328 16.0479L13.8259 22.6686C14.0324 22.8617 14.2951 22.9744 14.5772 22.9744C14.5772 22.9744 14.8176 22.9871 14.9626 22.9682C15.3032 22.917 15.6235 22.6367 15.7294 22.5201C16.0026 22.1565 15.8783 21.5919 15.8783 21.5919L13.7314 15.1644L7.08155 15.1633Z" fill="white"/>
</g>
<defs>
<clipPath id="clip0_2343_6">
<rect width="24" height="24" fill="white"/>
</clipPath>
</defs>
</svg>
