<svg width="24" height="24" viewBox="0 0 24 24" fill="none" xmlns="http://www.w3.org/2000/svg">
<g clip-path="url(#clip0_269_138)">
<path d="M22.9598 5.31019L13.0386 0.219937C12.4671 -0.0733125 11.5318 -0.0733125 10.9602 0.219937L1.03917 5.31019C0.467604 5.60344 0 6.32325 0 6.90975V17.0903C0.0444659 17.7733 0.437064 18.339 1.03912 18.6898L10.9604 23.78C11.5318 24.0733 12.4671 24.0733 13.0386 23.78L22.9598 18.6898C23.6059 18.308 23.9736 17.7332 23.999 17.0903V6.90975C23.9758 6.29264 23.56 5.67023 22.9599 5.31019M3.99982 12C3.95283 5.05833 14.4153 1.99317 18.9271 8.44327L15.4651 10.2236C13.3751 7.15172 8.1859 8.25014 7.99965 12C8.05556 15.4561 13.1559 17.0615 15.4653 13.7762L18.9273 15.5565C14.9511 21.6907 4.20026 19.4837 3.99982 12ZM19.9992 12.3949H19.1103V13.1849H18.2215V12.3949H17.3326V11.6051H18.2215V10.8152H19.1103V11.6051H19.9992V12.3949ZM23.3324 12.3949H22.4434V13.1849H21.5546V12.3949H20.6658V11.6051H21.5547V10.8152H22.4435V11.6051H23.3324V12.3949Z" fill="white"/>
</g>
<defs>
<clipPath id="clip0_269_138">
<rect width="24" height="24" fill="white"/>
</clipPath>
</defs>
</svg>
