<svg width="24" height="24" viewBox="0 0 24 24" fill="none" xmlns="http://www.w3.org/2000/svg">
<path d="M22.0312 6.28126L22.0875 6.24376C21.975 6.03751 21.8062 5.85001 21.6375 5.75626L12.5812 0.543756C12.4312 0.450006 12.225 0.412506 12 0.412506C11.775 0.412506 11.5687 0.468756 11.4187 0.543756L2.41875 5.77501C2.1 5.96251 1.875 6.43126 1.875 6.78751V17.2313C1.875 17.4375 1.9125 17.6625 2.04375 17.8688L2.00625 17.8875C2.1 18.0375 2.23125 18.1688 2.3625 18.2438L11.4 23.475C11.55 23.5688 11.7562 23.6063 11.9812 23.6063C12.2062 23.6063 12.4125 23.55 12.5625 23.475L21.5625 18.2438C21.8812 18.0563 22.1062 17.5875 22.1062 17.2313V6.76876C22.125 6.61876 22.1062 6.45001 22.0312 6.28126ZM12 16.5938C13.7062 16.5938 15.2062 15.6563 15.9937 14.2688L18.4125 15.6938C17.1375 17.9063 14.7375 19.4063 12 19.4063C7.9125 19.4063 4.59375 16.0875 4.59375 12C4.59375 7.91251 7.9125 4.59376 12 4.59376C14.7562 4.59376 17.1562 6.11251 18.4312 8.34376L15.9937 9.75001C15.2062 8.34376 13.7062 7.40626 12 7.40626C9.46875 7.40626 7.40625 9.46876 7.40625 12C7.40625 14.5313 9.46875 16.5938 12 16.5938Z" fill="white"/>
</svg>
