<svg width="24" height="24" viewBox="0 0 24 24" fill="none" xmlns="http://www.w3.org/2000/svg">
<path d="M8.8 8.80001H10.6C10.7 8.80001 10.8 8.70001 10.8 8.60001V7.10001C10.8 7.00001 10.7 6.90001 10.6 6.90001H8.8C8.7 6.90001 8.6 7.00001 8.6 7.10001V8.70001C8.6 8.70001 8.7 8.80001 8.8 8.80001ZM11.2 11.1H13C13.1 11.1 13.2 11 13.2 10.9V9.30001C13.2 9.20001 13.1 9.10001 13 9.10001H11.2C11.1 9.10001 11 9.20001 11 9.30001V10.9C11 11 11.1 11.1 11.2 11.1ZM11.2 8.80001H13C13.1 8.80001 13.2 8.70001 13.2 8.60001V7.10001L13 6.90001H11.2C11.1 6.90001 11 7.00001 11 7.10001V8.70001C11 8.70001 11.1 8.80001 11.2 8.80001ZM13.7 11.1H15.5C15.6 11.1 15.7 11 15.7 10.9V9.30001C15.7 9.20001 15.6 9.10001 15.5 9.10001H13.7C13.6 9.10001 13.5 9.20001 13.5 9.30001V10.9C13.5 11 13.6 11.1 13.7 11.1ZM11.2 6.50001H13C13.1 6.50001 13.2 6.40001 13.2 6.30001V4.80001C13.2 4.70001 13.1 4.60001 13 4.60001H11.2C11.1 4.60001 11 4.70001 11 4.80001V6.40001C11 6.50001 11.1 6.50001 11.2 6.50001ZM3.8 11.1H5.6C5.7 11.1 5.8 11 5.8 10.9V9.30001C5.8 9.20001 5.7 9.10001 5.6 9.10001H3.8C3.7 9.10001 3.6 9.20001 3.6 9.30001V10.9L3.8 11.1ZM21.8 10.1C21.3 9.80001 20.7 9.60001 20.2 9.70001C19.9 9.70001 19.6 9.70001 19.4 9.80001C19.2 8.90001 18.7 8.10001 18 7.70001L17.7 7.50001L17.5 7.80001C17.2 8.00001 17 8.40001 16.9 8.90001C16.7 9.70001 16.8 10.5 17.2 11.1C16.7 11.3 16.2 11.4 15.7 11.5H2.6C2.3 11.5 2 11.8 2 12.1C2 13.3 2.2 14.4 2.6 15.5C3 16.6 3.7 17.5 4.6 18.1C6 18.8 7.5 19.1 9 19C9.8 19 10.6 18.9 11.4 18.8C12.5 18.6 13.6 18.2 14.6 17.6C15.4 17.1 16.1 16.5 16.8 15.8C17.7 14.7 18.4 13.5 18.9 12.1H19.1C19.9 12.1 20.7 11.8 21.3 11.3C21.6 11.1 21.8 10.8 21.9 10.4L22 10.2L21.8 10.1ZM6.3 11.1H8C8.1 11.1 8.2 11 8.2 10.9V9.30001C8.2 9.20001 8.1 9.10001 8 9.10001H6.3C6.2 9.10001 6.1 9.20001 6.1 9.30001V10.9C6.1 11 6.2 11.1 6.3 11.1ZM6.3 8.80001H8C8.1 8.80001 8.2 8.70001 8.2 8.60001V7.10001C8.2 7.00001 8.1 6.90001 8 6.90001H6.3C6.2 6.90001 6.1 7.00001 6.1 7.10001V8.70001C6.1 8.70001 6.2 8.80001 6.3 8.80001ZM8.8 11.1H10.6C10.7 11.1 10.8 11 10.8 10.9V9.30001C10.8 9.20001 10.7 9.10001 10.6 9.10001H8.8C8.7 9.10001 8.6 9.20001 8.6 9.30001V10.9C8.6 11 8.7 11.1 8.8 11.1Z" fill="black"/>
</svg>
