<svg width="24" height="24" viewBox="0 0 24 24" fill="none" xmlns="http://www.w3.org/2000/svg">
<path d="M7.17177 20.36C6.25777 19.64 5.28177 18.95 4.61577 17.98C3.21377 16.268 2.13377 14.286 1.39577 12.203C0.949768 10.848 0.795768 9.39501 0.221768 8.09301C-0.380232 7.14901 0.324768 6.11501 1.35977 5.81301C1.81977 5.72601 2.63177 5.29101 1.65277 5.60201C0.774768 6.24601 0.689768 5.01701 1.58977 4.94001C2.20477 4.85801 2.42977 4.35501 2.21977 3.90301C1.55977 3.47301 3.81977 3.00001 2.68277 2.35901C1.49977 1.08001 4.33977 0.835005 3.63977 2.28501C3.47277 3.40001 5.62377 2.08001 5.12477 3.36801C5.63177 3.98701 7.02477 3.50801 6.98977 4.37701C7.72977 4.42701 7.98277 5.04901 8.67677 5.09701C9.39677 5.42201 10.6988 5.67701 10.9428 6.48701C10.2298 7.05301 8.57877 5.32201 8.49977 6.88501C8.71477 9.19501 8.65977 11.574 9.50377 13.773C9.90377 15.105 10.8738 16.153 11.7478 17.191C12.5848 18.207 13.7188 18.921 14.8748 19.524C15.8888 20.002 16.9818 20.319 18.0878 20.518C18.5358 20.175 19.3278 18.901 20.0258 19.438C20.0588 20.042 18.6378 20.701 19.9588 20.634C20.7348 20.4 21.2728 21.234 21.9118 20.482C22.4998 21.179 24.3578 20.036 23.9388 21.462C23.3728 21.826 22.5468 21.606 21.9798 22.108C21.0448 21.641 20.2998 22.526 19.2648 22.414C18.1141 22.6122 16.9483 22.7092 15.7808 22.704C13.8688 22.554 11.9158 22.49 10.0968 21.824C9.07277 21.527 8.07277 20.943 7.17177 20.36ZM8.78677 21.06C9.78677 21.492 10.7648 21.948 11.8608 22.086C13.6008 22.326 15.3978 22.7 17.1438 22.36C16.3538 22.003 15.5358 22.5 14.7488 22.105C13.8048 22.308 12.7918 22.053 11.8318 21.928C10.7398 21.442 9.56177 21.108 8.54077 20.476C7.26377 20.01 9.20077 21.074 9.54577 21.161C10.3438 21.614 8.66877 20.928 8.43177 20.74C7.76377 20.365 7.67777 20.443 8.36577 20.824C8.50477 20.904 8.64177 20.99 8.78577 21.059L8.78677 21.06ZM6.88277 19.714C7.85277 20.073 6.87877 19.032 6.43277 19.092C6.23677 18.751 5.68177 18.535 6.07277 18.352C5.36877 18.596 5.33577 17.422 5.00277 17.589C4.25877 17.354 4.71277 16.519 3.82677 16.009C3.74577 15.469 2.94477 15.001 2.68877 14.187C2.57577 13.771 1.78377 12.574 2.27077 13.687C2.68477 14.759 3.41377 15.677 4.02077 16.594C4.49077 17.467 5.04777 18.38 5.90577 18.924C6.19577 19.202 6.47377 19.627 6.88277 19.714ZM4.08977 16.647C4.26677 16.964 4.12277 16.501 4.08977 16.647ZM8.04377 20.144C8.25877 20.048 7.73377 20.024 8.04377 20.144ZM8.56977 20.336C8.51577 20.071 8.32977 20.484 8.56977 20.336ZM9.22977 20.611C9.54177 20.311 8.74577 20.423 9.22977 20.611ZM10.3568 21.241C10.5478 20.959 9.74677 21.134 10.3568 21.241ZM8.18977 19.728C8.67677 19.413 7.55977 19.724 8.18977 19.728ZM8.68377 19.974C8.66977 19.808 8.50777 20.049 8.68377 19.974ZM11.1538 21.516C11.5508 21.766 13.4738 22.066 12.2688 21.619C12.0688 21.661 10.0388 21.045 11.1528 21.516H11.1538ZM7.23277 18.462C7.19277 18.295 6.61677 18.277 7.23277 18.462ZM8.38277 19.132C8.68277 18.922 7.76177 18.972 8.38277 19.132ZM9.34877 19.725C9.77877 19.563 8.65277 19.562 9.34877 19.725ZM6.76477 17.952C7.23077 18.31 8.64477 17.998 7.47877 17.739C6.94877 17.456 5.75177 17.263 6.56677 17.909L6.76477 17.952ZM10.0048 19.93C10.1978 19.6 9.18977 19.74 10.0048 19.93ZM9.02077 19.147C10.1608 19.47 8.06277 18.427 8.73977 19.029L8.88977 19.097L9.02077 19.147ZM10.9938 20.287C12.0738 20.297 10.0188 20.14 10.9938 20.287ZM6.34977 17.327C6.30777 17.127 6.08377 17.345 6.34977 17.327ZM12.8198 21.312C12.8478 20.949 12.4668 21.582 12.8198 21.312ZM8.18977 18.456C8.12577 18.265 7.85377 18.448 8.18977 18.456ZM6.45177 17.202C7.07177 17.165 5.60377 16.929 6.45177 17.202ZM4.39177 15.87C4.31477 15.573 3.71777 15.336 4.39177 15.87ZM9.79877 19.305C9.74477 19.333 9.68477 19.175 9.79877 19.305ZM13.1648 21.37C13.1548 21.173 12.9818 21.445 13.1648 21.37ZM9.50077 18.997C9.56077 18.742 8.97277 18.92 9.50077 18.997ZM6.99477 17.405C7.45477 17.355 6.25477 17.094 6.99477 17.405ZM11.2358 20.042C11.9538 19.757 10.5358 19.902 11.2358 20.042ZM9.02977 18.545C9.85677 18.651 8.04477 17.982 8.84877 18.485L9.02977 18.545ZM11.9058 20.313C12.6788 19.851 12.4238 21.395 13.2168 20.443C13.9988 19.873 12.5418 21.15 13.5068 20.546C14.2028 20.079 15.2328 20.766 15.8828 20.991C16.3508 20.968 16.8058 21.396 17.2858 21.136C18.2088 20.886 15.4798 20.766 16.1958 20.326C15.3508 20.571 14.7258 20.032 14.3108 19.491C13.3628 19.271 12.2668 18.788 11.7938 17.949C11.6018 17.634 12.0738 17.993 11.6278 17.479C11.0578 16.971 10.7718 16.394 10.3878 15.777C9.93077 15.533 9.87777 14.814 9.83077 15.753C9.83477 15.16 9.27777 14.761 9.14277 14.927C9.14077 14.356 9.73777 14.642 9.31877 14.22C9.22877 13.628 8.93277 13.01 8.84377 12.343C8.70577 12.021 8.82377 11.332 8.37077 12.061C8.20577 12.831 8.31577 11.114 8.57277 11.681C8.90977 11.101 8.45277 11.171 8.43277 11.251C8.65277 10.763 8.57277 10.071 8.37577 10.335C8.49277 9.81801 8.56077 8.43301 8.20077 8.67901C8.41877 8.13901 8.61477 6.20601 7.66677 6.94301C7.28277 6.94801 6.61877 7.08301 6.30377 7.23901C7.28977 7.78201 6.20377 7.43501 5.80377 7.34901C5.75177 7.85101 5.35377 7.63401 4.85777 7.63901C5.65077 7.73701 4.47177 8.44901 4.01677 8.17301C3.42677 8.45501 4.52677 9.16001 4.02877 9.37801C4.08877 9.70601 3.12377 9.25801 3.19877 10.018C2.62577 9.77701 3.12077 10.918 3.40777 10.532C4.38277 10.796 4.09377 11.398 4.11777 11.969C3.95977 12.302 3.33377 11.186 3.97777 11.238C3.47077 10.411 3.41677 10.938 2.99377 11.323C2.89377 11.351 4.07277 11.87 3.33377 12.126C3.98377 12.226 4.00177 12.796 4.13377 13.156C4.52377 13.563 4.44377 12.706 4.91277 13.196C4.61677 12.76 3.34577 11.968 4.36877 12.222C4.36377 11.782 4.18377 11.429 4.49777 11.438C4.80777 10.876 4.17277 12.825 4.87277 12.11C5.06577 12.025 5.11277 11.547 5.46277 12.155C5.96777 12.653 5.64477 13.013 4.93177 12.558C5.05877 12.991 5.88577 13.145 5.73077 13.823C5.89577 14.418 6.12577 14.199 6.32677 14.165C6.48477 14.743 6.57377 14.318 6.58177 14.042C7.30177 14.197 7.13377 14.622 7.35977 14.922C7.85677 15.146 6.64777 13.4 7.50177 14.396C8.39977 15.206 7.83877 15.546 7.03177 15.416C7.54177 15.375 7.70677 16.106 8.34477 16.08C8.92677 16.357 9.31977 17.42 8.31777 16.977C7.96977 16.664 6.73777 16.277 7.74477 16.873C8.67377 17.303 9.40977 17.561 10.3058 18.1C10.9458 18.558 11.2238 19.082 11.4658 19.186C10.9278 19.443 9.84277 18.98 10.6488 18.838C10.1458 18.747 9.58077 18.493 10.0618 19.118C10.4718 19.461 11.5118 19.424 11.6988 19.463C11.5398 19.811 11.2688 19.839 11.7048 19.866C11.2188 20.126 11.8608 20.165 11.9058 20.313ZM10.9118 17.505C10.6158 17.195 10.5388 16.615 10.8588 17.12C11.0228 17.186 11.3838 18.067 10.9118 17.505ZM14.1498 19.562C14.3348 19.551 14.1558 19.702 14.1498 19.562ZM10.4438 16.746C10.5508 17.106 10.4338 16.278 10.4438 16.746ZM10.1218 16.313C10.5918 16.517 9.74977 15.593 10.1218 16.313ZM6.22177 13.621C6.44077 13.561 6.32977 13.995 6.22177 13.621ZM9.32577 15.303C9.48377 15.727 9.45977 14.799 9.32577 15.303ZM7.13377 13.778C7.45677 14.038 6.97877 13.5 7.13377 13.778ZM9.01577 14.382C8.66377 13.592 9.26577 13.95 9.09377 14.512L9.01577 14.382ZM5.76977 12.217C5.61177 11.957 5.35177 11.197 5.43577 10.965C5.51177 11.343 6.23977 12.592 5.79277 11.483C5.29877 10.553 6.38277 11.785 6.49477 12.017C6.54477 12.247 6.18977 11.954 6.43077 12.495C5.99077 11.878 6.17077 12.835 5.76977 12.217ZM4.76677 11.526C4.99677 11.939 4.80677 10.923 4.76677 11.526ZM5.21677 11.681C5.58277 12.315 5.43277 11.226 5.21677 11.681ZM4.13277 10.841C3.75877 10.471 3.48877 10.128 4.14977 10.611C4.40477 10.621 3.58377 9.83301 4.20977 10.361C4.86977 10.481 4.53677 11.443 4.13277 10.841ZM4.70277 10.826C4.91977 10.611 4.81777 11.038 4.70277 10.826ZM5.05277 10.939C5.45277 11.197 4.72477 10.322 5.05277 10.939ZM4.35577 10.272C3.26977 9.30601 5.72077 10.778 4.53277 10.452L4.35577 10.272ZM7.46577 12.08C6.99577 11.798 7.34277 10.096 7.50277 11.26C7.95977 11.112 7.47777 11.86 7.81777 11.854C7.76477 12.327 7.61177 12.497 7.46777 12.08H7.46577ZM8.61577 12.76C8.71477 13.11 8.66377 12.247 8.61577 12.76ZM8.41577 12.562C8.46977 12.342 8.42277 12.82 8.41577 12.562ZM4.56977 9.95501C3.87277 8.99201 6.59677 10.928 5.01677 10.199C4.85177 10.156 4.65277 10.139 4.56977 9.95501ZM6.78577 11.13C6.93277 11.264 6.71977 10.32 6.78577 11.13ZM8.46777 12.209C8.59777 11.747 8.47777 12.514 8.46777 12.209ZM4.67577 9.58701C5.09077 9.49901 6.39377 10.316 5.19577 9.82101C5.06377 9.67301 4.77977 9.74101 4.67577 9.58701ZM8.23577 11.362C8.27977 10.532 8.48377 10.867 8.23777 11.48L8.23577 11.362ZM4.98477 9.29901C5.15377 9.05101 4.53477 8.17901 5.07377 8.98601C5.30577 9.17101 5.74577 9.29601 5.35677 9.37301C5.96677 9.91201 5.20677 9.51901 4.98477 9.29901ZM8.05977 11.103C8.17677 10.159 8.16277 11.656 8.05977 11.103ZM4.63177 8.42701C4.76077 8.37201 4.69977 8.59901 4.63177 8.42701ZM5.43377 8.905C5.81377 9.388 5.63977 8.471 5.43377 8.905ZM7.69677 10.164C7.73977 10.406 7.69477 9.99701 7.69677 10.164ZM7.56577 9.87401C7.85777 10.284 7.25177 9.09801 7.56577 9.87401ZM7.37277 9.36401C7.55277 9.76801 7.31977 9.04401 7.37277 9.36401ZM7.68677 8.85401C7.47077 8.47401 7.95877 7.18101 8.01277 7.98401C7.78577 8.60901 7.94777 8.95901 8.10577 8.12001C8.39877 7.46001 8.04277 9.423 7.68577 8.855L7.68677 8.85401ZM8.00877 6.93101C8.10277 6.81601 8.02877 7.07001 8.00877 6.93101ZM7.46977 17.544C7.48577 17.614 7.34177 17.433 7.46977 17.544ZM8.57977 18.104C9.19477 18.264 9.19177 18.009 8.63477 17.934C8.33477 17.654 7.38877 17.359 8.23477 17.899C8.29177 18.041 8.46977 18.038 8.57877 18.105L8.57977 18.104ZM6.38877 16.65C6.72877 16.903 7.66877 17.369 6.87277 16.746C7.14177 16.434 6.35877 16.268 6.61877 16.06C5.95877 15.656 6.09877 15.692 6.56077 15.704C5.76677 15.35 6.67477 15.376 6.63077 15.194C6.32577 15.134 5.11077 14.654 5.82677 15.234C5.10077 14.864 5.65377 15.372 5.43477 15.318C4.69177 15.116 6.09477 15.883 5.31677 15.693C5.74177 16.03 6.46277 16.557 5.49677 16.05C5.36877 16.233 6.18677 16.51 6.38877 16.65ZM7.54877 17.317C8.95877 17.771 6.85777 16.761 7.54877 17.317ZM13.4888 20.915C13.5088 20.635 13.2958 21.155 13.4888 20.915ZM14.0998 21.172C14.4248 20.857 14.1128 21.675 14.6398 21.095C14.6448 20.68 14.6228 20.435 14.0338 20.939C13.8718 21.029 13.7998 21.412 14.0998 21.172ZM4.40777 15.085C4.30777 14.692 3.70777 14.695 4.40777 15.085ZM5.05977 15.513C4.81777 15.111 4.19577 15.149 5.05977 15.513ZM8.76977 17.75C9.13177 18.07 10.4318 17.986 9.20977 17.79C9.02777 17.52 8.05877 17.586 8.76977 17.75ZM13.8668 20.899C14.4248 20.431 13.3268 21.107 13.8668 20.899ZM15.0268 21.695C15.0298 21.545 14.7868 21.761 15.0268 21.695ZM15.0278 21.485C15.6448 20.831 14.4298 21.524 15.0278 21.485ZM2.80477 13.743C2.27877 12.993 2.47777 12.655 1.96977 12.043C1.87377 11.573 1.09977 10.51 1.56977 11.637C1.99977 12.296 2.12777 13.316 2.80477 13.743ZM14.8348 21.277C15.9698 20.543 14.3688 20.957 14.8348 21.277ZM15.7008 21.617C16.2708 21.129 15.3408 21.515 15.7008 21.617ZM4.21477 14.255C4.37777 14.013 3.79477 14.224 4.21477 14.255ZM15.5198 21.384C16.0708 21.029 15.3938 21.084 15.4198 21.416L15.5198 21.384ZM8.04977 16.674C8.02977 16.434 7.75877 16.694 8.04977 16.674ZM8.50977 16.941C8.36477 16.644 8.28577 16.988 8.50977 16.941ZM16.4038 21.625C17.1088 21.115 15.9758 21.527 16.2558 21.721L16.4038 21.625ZM16.1338 21.495C16.7078 21.013 15.5268 21.708 16.1338 21.495ZM17.5138 22.413C17.8998 22.155 17.0448 22.33 17.5138 22.413ZM4.56977 14.08C5.08677 14.196 6.63577 15.354 5.72177 14.16C5.25377 14.022 5.53477 12.877 5.05677 13.08C5.37677 13.615 5.32077 13.843 4.64677 13.506C3.80177 13.093 4.17277 13.71 4.33677 13.88C4.11277 13.932 4.63577 14.076 4.56977 14.08ZM2.21377 12.22C2.30577 11.837 1.36077 10.113 1.76777 11.356C1.91377 11.616 1.89777 12.11 2.21377 12.22ZM6.53777 14.886C6.52477 14.854 6.27177 14.663 6.53777 14.886ZM7.19377 15.038C7.19377 14.633 6.46877 14.874 7.19377 15.038ZM12.8748 18.621C12.7668 18.343 12.4468 18.615 12.8748 18.621ZM13.1478 18.82C13.1078 18.665 12.9908 18.85 13.1478 18.82ZM15.3998 20.24C15.6158 20.08 15.1298 20.22 15.3998 20.24ZM3.38977 12.52C4.00977 12.28 2.72577 12.35 3.38977 12.52ZM12.3738 18.182C12.3668 17.781 11.9788 18.282 12.3738 18.182ZM3.14377 11.951C3.54277 11.816 2.77677 11.861 3.14377 11.951ZM4.29977 12.511C4.29277 12.378 4.17777 12.561 4.29977 12.511ZM18.3898 21.151C18.9018 21.047 20.0678 21.411 20.2558 21.015C19.6358 21 18.1058 20.577 18.0338 21.115L18.1698 21.138L18.3898 21.151ZM4.66677 12.603C4.67577 12.196 4.34977 12.588 4.66677 12.603ZM1.62977 10.495C1.49177 9.72001 1.10477 10.377 1.62977 10.495ZM2.35377 10.677C2.36277 10.427 1.69077 10.453 2.35377 10.677ZM2.76777 10.88C2.67377 11.002 2.64777 10.783 2.76777 10.88ZM5.37277 12.55C5.49477 12.438 5.08277 12.467 5.37277 12.55ZM2.49277 10.422C2.42277 9.83701 1.65277 10.334 2.49277 10.422ZM1.00677 9.45801C0.986768 9.18801 0.862768 9.56001 1.00677 9.45801ZM1.22677 9.29101C1.19177 8.97101 1.03677 9.33101 1.22677 9.29101ZM2.44677 10.02C2.96477 9.81701 1.50677 9.60001 2.34277 9.98001L2.44677 10.02ZM18.7808 20.109C19.1108 19.806 18.3608 20.015 18.7808 20.109ZM20.7548 21.132C20.8868 20.74 20.4208 21.182 20.7548 21.132ZM2.57277 9.38001C2.62777 9.00001 2.16277 9.45501 2.57277 9.38001ZM0.836768 8.21801C0.743768 7.68301 0.756768 6.74401 1.64877 7.06201C0.457768 7.29801 2.47277 8.54201 2.21877 7.56001C2.71877 7.58401 3.19877 7.26401 2.93477 7.75001C3.92177 7.64001 4.60477 6.78601 5.55877 6.90501C6.30077 6.80701 7.11277 6.73301 7.91277 6.43401C8.57077 6.38601 9.20277 5.67801 8.84277 5.25901C7.94677 5.18301 7.00777 5.29501 6.01577 5.49201C4.91777 5.72001 3.91977 6.15401 2.81077 6.34101C1.73077 6.48601 3.02777 6.74101 2.71877 6.79701C2.15477 6.99301 3.39077 7.12501 2.64577 7.33101C2.18577 7.24301 1.70577 7.08501 1.90277 6.60101C0.867768 6.73401 -0.0422323 7.16401 0.775768 8.21701L0.836768 8.21801ZM3.33077 6.94801C3.57377 6.05401 4.63077 7.68301 3.72877 7.06601C3.62077 6.98601 3.44377 6.92001 3.33077 6.94601V6.94801ZM3.37777 6.51401C3.72777 6.25401 3.56377 6.66001 3.37777 6.51401ZM3.82277 6.52201C3.85477 6.11101 4.84077 6.74001 3.98577 6.67001L3.82277 6.52201ZM4.43077 6.27701C4.65277 6.01701 4.49477 6.50701 4.43077 6.27701ZM4.58677 6.17301C4.95677 5.72901 6.68177 5.89001 5.41877 6.13001C5.08077 5.87501 4.82077 6.28001 4.58677 6.17301ZM6.83677 5.82601C7.95577 6.25801 6.78177 4.61201 6.83677 5.82601ZM7.47677 5.82201C7.70977 5.21001 8.38277 5.57701 7.58477 5.69901C7.60177 5.76401 7.56077 6.01501 7.47677 5.82201ZM2.32177 9.06701C3.01877 8.64001 1.58077 8.69701 2.32177 9.06701ZM2.83677 9.21101C3.08177 8.95101 2.30577 9.10501 2.83677 9.21101ZM1.31677 8.131C1.71577 7.826 0.845768 8.015 1.31677 8.131ZM21.9188 21.021C21.9308 20.666 21.6148 21.181 21.9188 21.021ZM19.8258 19.591C19.8858 19.183 19.5558 19.628 19.8258 19.591ZM22.4958 21.159C23.0528 21.159 24.1838 20.986 22.9708 20.986C22.7808 21.016 21.8628 21.01 22.4958 21.159ZM3.28977 8.959C3.73977 8.929 3.99577 8.46201 3.20277 8.48901C1.97277 8.36201 4.28677 8.90901 3.04477 8.75301C2.87777 8.86301 3.28077 8.99001 3.28977 8.96001V8.959ZM3.68777 9.16101C3.63977 8.87101 3.54777 9.31501 3.68777 9.16101ZM4.15777 7.90401C4.35477 7.66101 3.88777 7.83901 4.15777 7.90401ZM2.65777 5.39601C3.46377 5.12201 4.56477 4.81501 4.94477 5.53101C4.55777 5.06501 4.78877 4.60701 5.15477 5.28801C5.67077 5.97701 5.92977 4.97501 5.59277 4.74301C5.97577 5.21901 6.41177 5.44301 5.84977 4.77301C6.45977 4.039 4.62677 4.87001 4.20977 4.86101C4.00977 4.95101 2.13777 5.33801 2.65777 5.39601ZM3.12977 4.49301C3.58977 4.14601 4.71777 4.69901 3.99377 4.14801C3.92377 4.08601 2.40777 4.56601 3.12977 4.49301ZM4.80377 4.56201C5.34177 4.57501 4.57277 3.84001 5.21277 4.17201C5.10777 3.82901 4.46677 3.76501 4.15277 3.62801C3.97677 3.94201 4.51377 4.56601 4.80377 4.56201ZM3.42377 3.04201C3.60977 2.79001 3.09777 3.17001 3.42377 3.04201ZM4.10777 3.20601C4.97377 3.09101 3.88777 2.83301 3.93377 3.19601L4.10777 3.20601ZM2.83077 2.20601C2.22077 1.41001 3.97677 2.34001 3.35777 1.50601C2.83577 1.09101 2.33477 1.97401 2.83077 2.20601ZM10.6548 6.42101C10.9348 5.92501 9.49977 5.75301 10.4668 6.24601C10.5568 6.27601 10.5368 6.45601 10.6548 6.42101Z" fill="black"/>
</svg>
