<svg width="24" height="24" viewBox="0 0 24 24" fill="none" xmlns="http://www.w3.org/2000/svg">
<g clip-path="url(#clip0_269_57)">
<path d="M23.5472 10.9305L13.0682 0.453004C12.9248 0.309456 12.7544 0.195584 12.5669 0.117893C12.3794 0.0402016 12.1784 0.000213623 11.9755 0.000213623C11.7725 0.000213623 11.5716 0.0402016 11.3841 0.117893C11.1966 0.195584 11.0262 0.309456 10.8827 0.453004L8.70774 2.628L11.4677 5.388C11.7932 5.27687 12.1434 5.25948 12.4784 5.33783C12.8133 5.41617 13.1194 5.5871 13.3618 5.83109C13.6043 6.07509 13.7732 6.38232 13.8494 6.71773C13.9256 7.05314 13.906 7.40322 13.7927 7.728L16.4522 10.389C16.8457 10.2505 17.2746 10.25 17.6684 10.3878C18.0621 10.5256 18.3972 10.7933 18.6185 11.147C18.8397 11.5006 18.934 11.919 18.8857 12.3334C18.8374 12.7477 18.6494 13.1332 18.3527 13.4265C18.0522 13.7277 17.6565 13.9153 17.2332 13.9575C16.8098 13.9996 16.3849 13.8937 16.0309 13.6577C15.6769 13.4217 15.4156 13.0702 15.2917 12.6632C15.1678 12.2562 15.1888 11.8188 15.3512 11.4255L12.8687 8.9445V15.474C13.0457 15.559 13.2077 15.6745 13.3547 15.8205C13.634 16.0996 13.8161 16.4611 13.874 16.8517C13.9319 17.2422 13.8625 17.6411 13.6762 17.9892C13.4899 18.3372 13.1965 18.6161 12.8394 18.7846C12.4823 18.953 12.0805 19.0021 11.6934 18.9245C11.3063 18.8469 10.9544 18.6468 10.6898 18.3537C10.4253 18.0606 10.262 17.6902 10.2243 17.2972C10.1865 16.9042 10.2763 16.5095 10.4802 16.1714C10.6841 15.8333 10.9915 15.5699 11.3567 15.42V8.8305C11.1322 8.73849 10.928 8.60293 10.7561 8.43165C10.5842 8.26036 10.4479 8.05675 10.355 7.83253C10.2621 7.60831 10.2146 7.36793 10.215 7.12524C10.2155 6.88255 10.264 6.64236 10.3577 6.4185L7.63974 3.6975L0.454743 10.8825C0.311196 11.026 0.197324 11.1963 0.119632 11.3838C0.0419411 11.5713 0.00195313 11.7723 0.00195312 11.9753C0.00195313 12.1782 0.0419411 12.3792 0.119632 12.5667C0.197324 12.7542 0.311196 12.9245 0.454743 13.068L10.9337 23.547C11.0772 23.6906 11.2476 23.8044 11.4351 23.8821C11.6226 23.9598 11.8235 23.9998 12.0265 23.9998C12.2295 23.9998 12.4304 23.9598 12.6179 23.8821C12.8054 23.8044 12.9758 23.6906 13.1192 23.547L23.5487 13.1175C23.6925 12.974 23.8066 12.8036 23.8844 12.6159C23.9622 12.4283 24.0023 12.2271 24.0023 12.024C24.0023 11.8209 23.9622 11.6197 23.8844 11.4321C23.8066 11.2445 23.6925 11.074 23.5487 10.9305" fill="black"/>
</g>
<defs>
<clipPath id="clip0_269_57">
<rect width="24" height="24" fill="white"/>
</clipPath>
</defs>
</svg>
