<svg width="24" height="24" viewBox="0 0 24 24" fill="none" xmlns="http://www.w3.org/2000/svg">
<g clip-path="url(#clip0_2343_14)">
<path d="M16.6881 17.9692C17.0744 17.6955 17.9609 18.2933 18.6681 19.3013C19.3754 20.3093 19.6334 21.3442 19.2419 21.6172C18.8549 21.891 17.9691 21.2933 17.2619 20.2853C16.5591 19.2773 16.3011 18.2422 16.6881 17.9692ZM7.40165 17.9692C7.0154 17.6955 6.12889 18.2933 5.42539 19.3013C4.71814 20.3093 4.46014 21.3442 4.85164 21.6172C5.23789 21.891 6.12439 21.2933 6.82789 20.2853C7.53514 19.2773 7.79315 18.2422 7.40165 17.9692ZM12.0389 19.5472C11.5656 19.5472 11.1839 20.5433 11.1839 21.7733C11.1839 23.004 11.5656 24 12.0389 24C12.5159 24 12.8976 23.004 12.8976 21.7733C12.8976 20.5425 12.5159 19.5472 12.0389 19.5472ZM16.6881 6.03075C17.0744 6.3045 17.9609 5.70675 18.6681 4.69875C19.3754 3.69075 19.6334 2.65575 19.2419 2.38275C18.8549 2.109 17.9691 2.70675 17.2619 3.71475C16.5591 4.72275 16.3011 5.75775 16.6881 6.03075ZM7.40165 6.03075C7.0154 6.3045 6.12889 5.70675 5.42539 4.69875C4.71814 3.69075 4.46014 2.65575 4.85164 2.38275C5.23789 2.109 6.12439 2.70675 6.82789 3.71475C7.53514 4.72275 7.79315 5.75775 7.40165 6.03075ZM12.0389 4.45275C11.5656 4.45275 11.1839 3.45675 11.1839 2.22675C11.1839 0.996 11.5656 0 12.0389 0C12.5159 0 12.8976 0.996 12.8976 2.22675C12.8976 3.4575 12.5159 4.45275 12.0389 4.45275ZM0.473145 9.066H2.12539V11.391H3.98839V9.066H5.64139V15.312H3.98839V12.8317H2.12539V15.312H0.473145V9.066ZM7.0229 9.066H11.0586V10.449H8.67589V11.43H10.7106V12.8123H8.67589V13.9305H11.1516V15.3127H7.0229V9.066ZM12.3629 9.066H14.0196V13.9297H16.3829V15.312H12.3666V9.066H12.3629ZM17.4569 9.066H19.1676L20.1479 11.6602L20.4921 12.6802H20.5311L20.8791 11.6602L21.8204 9.066H23.5274V15.312H21.9921V13.4647C21.9921 13.3047 22.0001 13.129 22.0161 12.9375C22.0311 12.7455 22.0514 12.5505 22.0701 12.3472C22.0904 12.144 22.1091 11.9482 22.1369 11.757C22.1601 11.5612 22.1841 11.3902 22.2029 11.2372H22.1639L21.6449 12.6945L20.7809 14.8005H20.1636L19.3004 12.6945L18.8001 11.2372H18.7611L18.8271 11.757C18.8546 11.9475 18.8779 12.1442 18.8969 12.3472C18.9126 12.5505 18.9329 12.7455 18.9479 12.9375C18.9639 13.1285 18.9719 13.3042 18.9719 13.4647V15.312H17.4561L17.4569 9.066Z" fill="white"/>
</g>
<defs>
<clipPath id="clip0_2343_14">
<rect width="24" height="24" fill="white"/>
</clipPath>
</defs>
</svg>
