<svg width="24" height="24" viewBox="0 0 24 24" fill="none" xmlns="http://www.w3.org/2000/svg">
<path d="M10.82 8.42699C10.06 7.34199 9.774 6.55499 9.712 5.98199C9.653 5.44199 9.785 5.01199 10.047 4.59899C10.33 4.15199 10.755 3.73699 11.295 3.24599C11.8 2.78799 12.432 2.24299 12.928 1.62599L11.37 0.373993C10.954 0.890993 10.442 1.32099 9.952 1.76499C9.418 2.24999 8.803 2.82699 8.359 3.52899C7.893 4.26399 7.609 5.13999 7.724 6.19899C7.836 7.22499 8.312 8.33099 9.182 9.57399L10.82 8.42699ZM12.07 5.39699C12.354 4.71299 12.931 4.02699 13.85 3.24099L15.15 4.75899C14.319 5.47199 14.021 5.91199 13.915 6.16599C13.811 6.41599 13.88 6.66499 13.95 6.91299C14.034 7.20899 14.173 7.70299 14.164 8.23499C14.152 8.94099 13.91 9.68699 13.332 10.555L11.668 9.44499C12.09 8.81299 12.16 8.43499 12.164 8.20199C12.169 7.90699 12.092 7.74199 11.967 7.24199C11.847 6.76399 11.758 6.14499 12.07 5.39699ZM6.141 9.99999C6.611 9.68599 7.191 9.52599 7.733 9.39599L7.266 7.44999C6.453 7.64599 5.715 7.90999 5.154 8.25699C4.644 8.57299 4 9.13599 4 9.99999C4 10.726 4.486 11.306 5.065 11.686C5.02138 11.8735 4.99957 12.0655 5 12.258C5 13.238 5.418 14.065 6.143 14.678C6.036 14.978 5.988 15.312 6.003 15.646C5.226 15.797 4.467 16.019 3.833 16.31C3.401 16.508 2.975 16.761 2.643 17.087C2.309 17.416 2 17.891 2 18.5C2 18.927 2.189 19.272 2.374 19.51C2.563 19.752 2.806 19.959 3.058 20.134C3.564 20.485 4.242 20.803 5.017 21.07C6.575 21.608 8.686 22 11 22C14.327 22 16.663 21.616 18.19 21.218C18.7702 21.0705 19.3396 20.883 19.894 20.657C20.104 20.569 20.314 20.476 20.51 20.36C20.52 20.354 19.482 18.645 19.486 18.642C18.922 18.936 18.298 19.122 17.686 19.282C16.337 19.634 14.173 20 11 20C8.896 20 7.007 19.642 5.67 19.18C5.138 18.996 4.582 18.782 4.129 18.44C4.244 18.35 4.419 18.241 4.667 18.128C5.225 17.872 5.99 17.662 6.807 17.537C7.03633 17.7803 7.30767 17.9937 7.621 18.177C8.586 18.739 9.913 19 11.5 19C12.81 19 13.758 18.868 14.398 18.726C14.754 18.648 15.112 18.559 15.44 18.398C15.443 18.396 14.559 16.603 14.559 16.603C14.365 16.673 14.1673 16.7297 13.966 16.773C13.477 16.882 12.676 17 11.5 17C10.087 17 9.164 16.76 8.629 16.449C8.203 16.201 8.04 15.925 8.007 15.625C8.875 15.878 9.902 16 11.063 16C12.526 16 13.581 15.857 14.291 15.703C14.677 15.62 15.066 15.524 15.425 15.357C15.445 15.347 14.568 13.55 14.568 13.55C14.3405 13.6352 14.1064 13.7014 13.868 13.748C13.308 13.869 12.395 14 11.062 14C9.459 14 8.392 13.736 7.76 13.377C7.289 13.109 7.082 12.809 7.02 12.487C8.26 12.813 9.825 13 11.5 13C13.317 13 15.002 12.78 16.283 12.402L15.717 10.484C14.663 10.795 13.177 11 11.5 11C9.776 11 8.255 10.784 7.198 10.458C6.698 10.305 6.352 10.142 6.142 9.99999M17.59 10.746C18.803 10.636 19.25 10.934 19.394 11.088C19.543 11.248 19.595 11.496 19.53 11.758C19.414 12.222 19.087 12.672 18.557 13.086C18.028 13.499 17.357 13.826 16.684 14.051L17.316 15.948C18.144 15.672 19.034 15.25 19.787 14.663C20.537 14.077 21.211 13.278 21.47 12.243C21.655 11.503 21.582 10.502 20.856 9.72299C20.126 8.94099 18.947 8.61399 17.409 8.75399L17.59 10.746Z" fill="white"/>
</svg>
