<svg width="24" height="24" viewBox="0 0 24 24" fill="none" xmlns="http://www.w3.org/2000/svg">
<g clip-path="url(#clip0_2342_2)">
<path fill-rule="evenodd" clip-rule="evenodd" d="M0.0375053 14.5262L2.09635 5.5697C2.20257 5.10812 2.52961 4.70157 2.95965 4.49607L11.3048 0.508883C11.7342 0.301414 12.1901 0.311914 12.69 0.508883L21.0361 4.49391C21.4661 4.69937 21.7931 5.10591 21.8995 5.56773L23.9614 14.5241C24.0678 14.986 23.9509 15.4933 23.6531 15.8635L17.8791 23.0462C17.581 23.4159 17.1086 23.6411 16.6313 23.6407L7.36866 23.6429C6.89119 23.6431 6.41879 23.4174 6.1209 23.0474L0.344865 15.8656C0.020021 15.4594 -0.0568072 15.0083 0.0375053 14.5262ZM11.5683 15.3479L10.1638 17.8855C11.41 18.2844 12.6383 18.3048 13.8459 17.889L12.4391 15.3469C12.1861 14.9904 11.7565 15.0266 11.5683 15.348M9.47035 13.9224L6.61641 14.4066C7.0568 15.6252 7.88016 16.6184 8.91404 17.2818L10.0196 14.6096C10.1414 14.2111 9.87961 13.8849 9.4703 13.9223M13.9794 14.5932L15.097 17.2925C16.1742 16.6062 16.9802 15.5807 17.4016 14.397L14.5228 13.9104C14.103 13.8703 13.8518 14.218 13.9794 14.5932ZM11.0001 12.233L11.1987 13.0953L11.9996 13.4804L12.7981 13.0965L12.9965 12.2341L12.4437 11.5431H11.5542L11.0001 12.233ZM14.9067 12.2401L17.7039 13.0457C17.8314 11.7615 17.5172 10.5715 16.8712 9.45216L14.7118 11.3847C14.4586 11.681 14.4788 12.0485 14.9067 12.2401ZM9.28374 11.393L7.11254 9.45104C6.4502 10.5292 6.16586 11.7973 6.30441 13.0551L9.08766 12.2519C9.46172 12.1005 9.58421 11.7168 9.28374 11.393ZM13.6427 10.0439L16.0053 8.36888C15.114 7.49598 13.9508 6.92654 12.6931 6.77171L12.8571 9.66718C12.9195 10.1533 13.2909 10.2309 13.6427 10.0439M7.97494 8.36776L10.3529 10.0535C10.7418 10.294 11.111 10.037 11.1432 9.67182L11.3072 6.77171C10.0074 6.94941 8.86196 7.48702 7.9749 8.36776M20.851 15.0421C20.6145 14.9656 19.8786 14.6395 19.391 14.5672C19.241 14.5554 19.1645 14.627 19.0815 14.6818L18.8452 14.6404C18.3155 16.3052 17.1874 17.7467 15.6581 18.6496L15.7502 18.8731C15.7151 18.9662 15.6627 19.0556 15.7075 19.199C15.9158 19.701 16.2256 20.0961 16.4944 20.5174C16.9934 21.353 16.0124 21.9322 15.531 21.0924C15.3461 20.5761 15.1865 19.9324 14.9587 19.5605C14.8743 19.436 14.771 19.4201 14.6763 19.3892L14.5582 19.1766C12.8338 19.8119 11.1336 19.7962 9.45629 19.1635L9.33099 19.3904C9.23771 19.4153 9.14785 19.4408 9.09268 19.5065C8.83158 19.8387 8.61924 20.7461 8.43666 21.1471C8.05355 21.8848 7.10494 21.3803 7.43738 20.6756C7.65765 20.2225 7.94391 19.989 8.30527 19.1857C8.33222 19.0932 8.30879 18.9517 8.25601 18.8731L8.35641 18.6319C6.88472 17.7601 5.72269 16.3704 5.16816 14.651L4.92713 14.6923C4.87088 14.6312 4.7326 14.5705 4.60932 14.5801C4.31415 14.6229 3.97904 14.6643 3.64543 14.8636C2.10563 15.7833 1.55133 13.8099 3.4328 13.9328C4.16602 13.9807 4.46344 13.8718 4.66135 13.53L4.89277 13.4627C4.63346 11.666 5.0724 9.90273 6.02091 8.4752L5.84372 8.31699C5.83247 8.24795 5.81771 8.08848 5.73277 7.99806C5.03551 7.40241 4.74436 7.40363 4.33758 7.06009C3.69694 6.55848 4.37855 5.68782 5.01924 6.18938C5.39865 6.48938 5.6086 6.86588 6.2513 7.34706C6.38124 7.42271 6.48108 7.39229 6.5798 7.37902L6.77935 7.52077C7.80924 6.43609 9.37463 5.49235 11.3912 5.3034L11.4041 5.06959C11.4778 4.99834 11.5603 4.89587 11.5838 4.78365C11.6401 4.21384 11.448 3.53598 11.4468 3.09788C11.4566 2.30288 12.5228 2.2577 12.5524 3.09788C12.5649 3.58801 12.4034 3.84887 12.4155 4.78365C12.4372 4.93238 12.5242 4.9913 12.5961 5.06012L12.6091 5.30691C14.367 5.4631 15.9994 6.26691 17.1984 7.52424L17.4086 7.3742C17.4799 7.37841 17.637 7.40002 17.7443 7.33763C18.0221 7.15918 18.438 6.71879 18.8546 6.27685C19.4733 5.63865 20.3518 6.39348 19.6662 7.0434C19.3231 7.33843 18.8834 7.45702 18.2629 7.98737C18.16 8.0972 18.1678 8.20126 18.1588 8.3004L17.9627 8.47646C18.9765 10.0558 19.3713 11.6272 19.1145 13.452L19.3378 13.5169C19.3779 13.5738 19.4604 13.7118 19.5763 13.7569C20.0577 13.9104 20.541 13.914 21.1783 13.9813C22.1408 14.0829 21.7759 15.3274 20.851 15.0421" fill="black"/>
</g>
<defs>
<clipPath id="clip0_2342_2">
<rect width="24" height="24" fill="white"/>
</clipPath>
</defs>
</svg>
