<svg width="24" height="24" viewBox="0 0 24 24" fill="none" xmlns="http://www.w3.org/2000/svg">
<g clip-path="url(#clip0_269_99)">
<path d="M17.1929 9.555C15.9289 3.975 12.9409 2.141 12.6199 1.44C12.3399 1.046 12.0899 0.486 11.8849 0C11.8489 0.495 11.8299 0.685 11.3619 1.184C10.6389 1.75 6.92394 4.866 6.62194 11.204C6.33994 17.116 10.8919 20.639 11.5099 21.088L11.5799 21.138C11.7085 22.0898 11.8185 23.0439 11.9099 24H12.3909C12.5059 22.9683 12.6761 21.9435 12.9009 20.93C13.3179 20.634 13.5049 20.467 13.7509 20.237C14.916 19.1594 15.8419 17.8492 16.4687 16.3912C17.0956 14.9332 17.4094 13.3599 17.3899 11.773C17.3999 10.959 17.2869 10.111 17.1929 9.555ZM11.8569 17.75C11.8569 17.75 11.8569 9.459 12.1319 9.46C12.3449 9.46 12.6219 20.155 12.6219 20.155C12.2409 20.11 11.8569 18.395 11.8569 17.75Z" fill="white"/>
</g>
<defs>
<clipPath id="clip0_269_99">
<rect width="24" height="24" fill="white"/>
</clipPath>
</defs>
</svg>
