<svg width="24" height="24" viewBox="0 0 24 24" fill="none" xmlns="http://www.w3.org/2000/svg">
<path fill-rule="evenodd" clip-rule="evenodd" d="M22.4001 6.7408L12.0001 0.671997L1.6001 6.7408V17.2592L3.2097 18.1984L6.5009 16.8672C6.9438 16.6879 7.32308 16.3804 7.59016 15.9842C7.85725 15.588 7.99999 15.121 8.0001 14.6432V6.4H9.6001V14.6432C9.59998 15.4397 9.36206 16.2181 8.9168 16.8786C8.47155 17.539 7.83924 18.0515 7.1009 18.3504L4.9569 19.2176L12.0001 23.328L22.4001 17.2608V6.7408ZM11.2001 9.6C11.2001 8.7513 11.5372 7.93737 12.1374 7.33726C12.7375 6.73714 13.5514 6.4 14.4001 6.4H16.2673C17.8865 6.4 19.2001 7.712 19.2001 9.3328V9.6H17.6001V9.3328C17.6001 9.15777 17.5656 8.98446 17.4986 8.82276C17.4317 8.66105 17.3335 8.51413 17.2097 8.39037C17.086 8.2666 16.939 8.16843 16.7773 8.10145C16.6156 8.03447 16.4423 8 16.2673 8H14.4001C13.9758 8 13.5688 8.16857 13.2687 8.46863C12.9687 8.76869 12.8001 9.17565 12.8001 9.6C12.8001 10.0243 12.9687 10.4313 13.2687 10.7314C13.5688 11.0314 13.9758 11.2 14.4001 11.2H16.0001C16.8488 11.2 17.6627 11.5371 18.2628 12.1373C18.863 12.7374 19.2001 13.5513 19.2001 14.4C19.2001 15.2487 18.863 16.0626 18.2628 16.6627C17.6627 17.2629 16.8488 17.6 16.0001 17.6H14.4001C13.5514 17.6 12.7375 17.2629 12.1374 16.6627C11.5372 16.0626 11.2001 15.2487 11.2001 14.4H12.8001C12.8001 14.8243 12.9687 15.2313 13.2687 15.5314C13.5688 15.8314 13.9758 16 14.4001 16H16.0001C16.4244 16 16.8314 15.8314 17.1315 15.5314C17.4315 15.2313 17.6001 14.8243 17.6001 14.4C17.6001 13.9757 17.4315 13.5687 17.1315 13.2686C16.8314 12.9686 16.4244 12.8 16.0001 12.8H14.4001C13.5514 12.8 12.7375 12.4629 12.1374 11.8627C11.5372 11.2626 11.2001 10.4487 11.2001 9.6Z" fill="white"/>
</svg>
