<svg width="24" height="24" viewBox="0 0 24 24" fill="none" xmlns="http://www.w3.org/2000/svg">
<g clip-path="url(#clip0_269_11)">
<mask id="mask0_269_11" style="mask-type:luminance" maskUnits="userSpaceOnUse" x="0" y="0" width="24" height="24">
<path d="M0 0H24V24H0V0Z" fill="white"/>
</mask>
<g mask="url(#mask0_269_11)">
<path d="M11.914 0C5.82 0 6.2 2.656 6.2 2.656L6.207 5.408H12.021V6.234H3.9C3.9 6.234 0 5.789 0 11.969C0 18.149 3.403 17.929 3.403 17.929H5.433V15.062C5.433 15.062 5.324 11.642 8.783 11.642H14.549C14.549 11.642 17.789 11.694 17.789 8.494V3.202C17.789 3.202 18.281 0 11.914 0ZM8.708 1.85C9.286 1.85 9.754 2.32 9.754 2.902C9.754 3.483 9.286 3.953 8.708 3.953C8.129 3.953 7.662 3.483 7.662 2.902C7.662 2.32 8.129 1.85 8.708 1.85Z" fill="black"/>
<path d="M12.0869 24C18.1789 24 17.7989 21.344 17.7989 21.344L17.7919 18.592H11.9779V17.766H20.1009C20.1009 17.766 24.0009 18.211 24.0009 12.031C24.0009 5.85099 20.5969 6.07099 20.5969 6.07099H18.5669V8.93799C18.5669 8.93799 18.6759 12.358 15.2169 12.358H9.45194C9.45194 12.358 6.21194 12.306 6.21194 15.506V20.798C6.21194 20.798 5.71994 24 12.0869 24ZM15.2929 22.15C14.7139 22.15 14.2469 21.68 14.2469 21.098C14.2469 20.517 14.7139 20.047 15.2929 20.047C15.8709 20.047 16.3389 20.517 16.3389 21.098C16.3389 21.68 15.8709 22.15 15.2929 22.15Z" fill="black"/>
</g>
</g>
<defs>
<clipPath id="clip0_269_11">
<rect width="24" height="24" fill="white"/>
</clipPath>
</defs>
</svg>
