<svg width="24" height="24" viewBox="0 0 24 24" fill="none" xmlns="http://www.w3.org/2000/svg">
<g clip-path="url(#clip0_269_108)">
<path d="M14.135 11.974C14.135 12.2905 14.0796 12.6039 13.972 12.8963C13.8643 13.1887 13.7065 13.4543 13.5076 13.6781C13.3087 13.9019 13.0725 14.0794 12.8126 14.2005C12.5527 14.3217 12.2741 14.384 11.9928 14.384C11.7115 14.384 11.4329 14.3217 11.173 14.2005C10.9131 14.0794 10.677 13.9019 10.478 13.6781C10.2791 13.4543 10.1213 13.1887 10.0137 12.8963C9.906 12.6039 9.85059 12.2905 9.85059 11.974C9.85059 11.3348 10.0763 10.7218 10.478 10.2699C10.8798 9.81791 11.4247 9.564 11.9928 9.564C12.561 9.564 13.1058 9.81791 13.5076 10.2699C13.9093 10.7218 14.135 11.3348 14.135 11.974Z" fill="white"/>
<path d="M11.9919 17.494C9.35855 17.5699 6.73183 17.1626 4.21497 16.288L4.38653 16.339C3.24143 15.93 2.17405 15.2847 1.23897 14.436L1.25764 14.452C0.903509 14.1662 0.608263 13.7979 0.391989 13.3722C0.175715 12.9465 0.0434888 12.4733 0.00430686 11.985L0.00341797 11.972C0.00341797 10.378 1.55631 8.818 4.16431 7.8C6.3972 6.973 8.96697 6.496 11.6354 6.496L12.0061 6.499H11.9874C14.6672 6.45338 17.3354 6.90406 19.8852 7.833L19.7119 7.778C20.8162 8.17545 21.8493 8.78958 22.7634 9.592L22.7421 9.574C23.0895 9.84696 23.3798 10.202 23.5926 10.6143C23.8054 11.0266 23.9356 11.4862 23.9741 11.961L23.975 11.974C23.975 13.63 22.2381 15.306 19.439 16.348C17.3385 17.077 14.9234 17.497 12.4212 17.497C12.2701 17.497 12.1199 17.495 11.9696 17.492H11.9919V17.494ZM11.9919 7.654C11.8976 7.652 11.7856 7.652 11.6736 7.652C9.11275 7.652 6.64608 8.104 4.33231 8.941L4.50208 8.888C2.10386 9.829 1.02831 11.116 1.02831 11.975C1.02831 12.868 2.18475 14.275 4.71986 15.249C6.71897 15.946 9.01675 16.348 11.3981 16.348C11.607 16.348 11.815 16.345 12.0221 16.339L11.9919 16.34C14.461 16.3939 16.9223 16.0099 19.2852 15.202L19.119 15.251C21.7501 14.267 22.959 12.86 22.959 11.971C22.9162 11.6656 22.8179 11.3734 22.6701 11.1127C22.5224 10.8521 22.3284 10.6285 22.1003 10.456L22.0932 10.451C21.3003 9.7593 20.4072 9.22681 19.4532 8.877L19.391 8.857C17.2861 8.091 14.8639 7.649 12.351 7.649C12.2248 7.649 12.0994 7.65 11.9741 7.652H11.9928L11.9919 7.654Z" fill="white"/>
<path d="M7.13169 23.986L7.08458 23.987C6.68191 23.987 6.30413 23.868 5.97791 23.66L5.98947 23.667C4.76458 22.867 4.33791 20.575 4.85169 17.526C5.47124 14.398 6.47569 11.632 7.82413 9.126L7.7628 9.25C9.03817 6.68769 10.6657 4.36838 12.585 2.378L12.6028 2.36C13.4355 1.50436 14.394 0.818139 15.4357 0.331995L15.5006 0.304995C15.8624 0.108995 16.2872 -0.00500488 16.7361 -0.00500488C17.1815 -0.00500488 17.6037 0.107995 17.9806 0.308995L17.9628 0.300995C19.2384 1.127 19.6615 3.661 19.0632 6.907C18.4232 9.874 17.4472 12.487 16.1637 14.866L16.2259 14.743C14.9352 17.373 13.3735 19.625 11.545 21.562L11.5326 21.575C10.6688 22.4645 9.66857 23.1699 8.58058 23.657L8.5148 23.683C8.10591 23.864 7.63302 23.975 7.13791 23.988H7.13258L7.13169 23.986ZM8.2028 9.53899L8.64636 9.82699C7.4188 12.107 6.45524 14.753 5.88547 17.567L5.85524 17.747C5.38147 20.556 5.83836 22.245 6.49524 22.673C6.66502 22.775 6.86591 22.834 7.07924 22.834L7.13347 22.833H7.1308C7.97969 22.833 9.31569 22.228 10.8606 20.711C12.6181 18.8451 14.1089 16.685 15.2801 14.307L15.3406 14.172C16.5619 11.9043 17.4687 9.44032 18.0295 6.865L18.0632 6.683C18.6224 3.625 18.1397 1.753 17.4535 1.305C17.1938 1.19318 16.9163 1.1436 16.6386 1.15944C16.3609 1.17529 16.0893 1.2562 15.841 1.397L15.8526 1.391C14.9016 1.83101 14.027 2.45587 13.2686 3.237L13.2748 3.231C11.4631 5.10653 9.92272 7.28881 8.70947 9.699L8.64813 9.831L8.2028 9.53899Z" fill="white"/>
<path d="M16.8532 24C15.6923 24 14.2221 23.213 12.6843 21.724C10.7548 19.7488 9.11554 17.4422 7.82745 14.89L7.76345 14.753C6.49234 12.404 5.4959 9.678 4.90567 6.778L4.87367 6.593C4.72111 5.81914 4.64509 5.02866 4.64701 4.236C4.64701 3.709 4.6799 3.192 4.74301 2.685L4.73679 2.743C4.77212 2.26723 4.89961 1.80593 5.1103 1.39149C5.32098 0.977047 5.60976 0.619516 5.95634 0.344L5.96523 0.337C7.23634 -0.493 9.40079 0.361 11.6026 2.565C13.4009 4.47712 14.9343 6.68159 16.1519 9.105L16.2159 9.243C17.5372 11.6544 18.5099 14.2865 19.0977 17.041L19.1315 17.227C19.2763 17.936 19.3599 18.751 19.3599 19.587C19.3599 20.164 19.3208 20.73 19.2443 21.283L19.2515 21.221C19.2086 21.7089 19.073 22.1807 18.8539 22.6045C18.6347 23.0282 18.3371 23.394 17.9812 23.677L17.9715 23.684C17.6443 23.8924 17.2745 24.0013 16.8986 24L16.8506 23.999L16.8532 24ZM8.65056 14.177C9.89137 16.6591 11.4726 18.9054 13.3359 20.833L13.3537 20.851C15.279 22.714 16.8061 23.117 17.4675 22.685C18.1546 22.239 18.6577 20.409 18.1377 17.452C17.5137 14.562 16.5492 12.018 15.2763 9.711L15.3341 9.823C14.1635 7.457 12.6805 5.3045 10.9359 3.439L10.9252 3.428C8.85056 1.354 7.16967 0.888 6.48256 1.334C6.26911 1.5281 6.09374 1.76987 5.96752 2.04405C5.8413 2.31823 5.76697 2.61887 5.74923 2.927V2.934C5.6111 4.10065 5.65987 5.2857 5.89323 6.433L5.88167 6.367C6.4799 9.319 7.43456 11.926 8.71012 14.291L8.65145 14.174L8.65056 14.177Z" fill="white"/>
</g>
<defs>
<clipPath id="clip0_269_108">
<rect width="24" height="24" fill="white"/>
</clipPath>
</defs>
</svg>
