<svg width="24" height="24" viewBox="0 0 24 24" fill="none" xmlns="http://www.w3.org/2000/svg">
<path d="M20.205 16.392C17.736 19.681 12.464 18.571 9.083 18.73C9.083 18.73 8.484 18.764 7.882 18.863C7.882 18.863 8.11 18.766 8.401 18.665C10.775 17.844 11.897 17.679 13.34 16.938C16.05 15.55 18.748 12.525 19.297 9.38299C18.265 12.405 15.127 15.006 12.27 16.062C10.315 16.784 6.778 17.486 6.777 17.486C6.72895 17.4614 6.68128 17.4361 6.634 17.41C4.229 16.24 4.159 11.03 8.528 9.35099C10.444 8.61499 12.275 9.01899 14.346 8.52599C16.554 8.00099 19.112 6.34599 20.151 4.18199C21.316 7.63999 22.716 13.048 20.205 16.392ZM20.247 3.11199C19.9677 3.78174 19.6102 4.41614 19.182 5.00199C18.2512 4.04264 17.1372 3.28001 15.906 2.75935C14.6749 2.23869 13.3517 1.9706 12.015 1.97099C6.492 1.97099 2 6.46299 2 11.985C1.99936 13.3624 2.28377 14.7251 2.83534 15.9872C3.38692 17.2494 4.19372 18.3838 5.205 19.319L5.425 19.513C5.26465 19.3524 5.17464 19.1346 5.17478 18.9077C5.17493 18.6807 5.2652 18.4631 5.42575 18.3027C5.58631 18.1423 5.804 18.0522 6.03096 18.0522C6.25793 18.0523 6.47558 18.1424 6.63607 18.3029C6.79656 18.4634 6.88674 18.6811 6.88678 18.908C6.88683 19.135 6.79674 19.3527 6.63632 19.5132C6.4759 19.6738 6.25828 19.7641 6.03131 19.7642C5.80435 19.7644 5.58662 19.6743 5.426 19.514L5.575 19.646C7.3754 21.1681 9.65739 22.0023 12.015 22C17.293 22 21.628 17.892 21.999 12.708C22.273 10.169 21.523 6.94499 20.247 3.11199Z" fill="white"/>
</svg>
