<svg width="24" height="24" viewBox="0 0 24 24" fill="none" xmlns="http://www.w3.org/2000/svg">
<g clip-path="url(#clip0_269_34)">
<path d="M12.001 4.8C8.80098 4.8 6.80098 6.4 6.00098 9.6C7.20098 8 8.60098 7.4 10.201 7.8C11.114 8.028 11.766 8.69 12.489 9.424C13.666 10.618 15.027 12 18.001 12C21.201 12 23.201 10.4 24.001 7.2C22.801 8.8 21.401 9.4 19.801 9C18.888 8.772 18.236 8.11 17.513 7.376C16.337 6.182 14.976 4.8 12.001 4.8ZM6.00098 12C2.80098 12 0.800977 13.6 0.000976562 16.8C1.20098 15.2 2.60098 14.6 4.20098 15C5.11398 15.228 5.76598 15.89 6.48898 16.624C7.66598 17.818 9.02698 19.2 12.001 19.2C15.201 19.2 17.201 17.6 18.001 14.4C16.801 16 15.401 16.6 13.801 16.2C12.888 15.972 12.236 15.31 11.513 14.576C10.337 13.382 8.97598 12 6.00098 12Z" fill="black"/>
</g>
<defs>
<clipPath id="clip0_269_34">
<rect width="24" height="24" fill="white"/>
</clipPath>
</defs>
</svg>
