<svg width="24" height="24" viewBox="0 0 24 24" fill="none" xmlns="http://www.w3.org/2000/svg">
<g clip-path="url(#clip0_269_69)">
<mask id="mask0_269_69" style="mask-type:luminance" maskUnits="userSpaceOnUse" x="0" y="0" width="24" height="24">
<path d="M0 0H24V24H0V0Z" fill="white"/>
</mask>
<g mask="url(#mask0_269_69)">
<path d="M0.228076 8.37C0.228076 8.37 -0.355924 7.943 0.345076 7.375L1.98008 5.897C1.98008 5.897 2.44708 5.4 2.94208 5.833L18.0231 17.375V22.909C18.0231 22.909 18.0161 23.779 16.9131 23.683L0.228076 8.37Z" fill="black"/>
<path d="M4.11607 11.937L0.228071 15.509C0.228071 15.509 -0.171929 15.809 0.228071 16.346L2.03307 18.006C2.03307 18.006 2.46207 18.471 3.09507 17.941L7.21607 14.783L4.11607 11.937ZM10.9401 11.966L18.0701 6.464L18.0231 0.959C18.0231 0.959 17.7181 -0.243 16.7031 0.383L7.21607 9.11L10.9401 11.966Z" fill="black"/>
<path d="M16.9121 23.69C17.3261 24.118 17.8281 23.978 17.8281 23.978L23.3841 21.211C24.0951 20.721 23.9951 20.113 23.9951 20.113V3.588C23.9951 2.862 23.2601 2.611 23.2601 2.611L18.4441 0.264003C17.3921 -0.392997 16.7031 0.383003 16.7031 0.383003C16.7031 0.383003 17.5891 -0.261997 18.0231 0.959003V22.809C18.0231 22.959 17.9911 23.106 17.9281 23.239C17.8011 23.498 17.5261 23.739 16.8661 23.639L16.9121 23.69Z" fill="black"/>
</g>
</g>
<defs>
<clipPath id="clip0_269_69">
<rect width="24" height="24" fill="white"/>
</clipPath>
</defs>
</svg>
