<svg width="16" height="16" viewBox="0 0 16 16" fill="#FFFFFF" xmlns="http://www.w3.org/2000/svg">
<path d="M8.22 2.97C8.36063 2.82955 8.55125 2.75066 8.75 2.75066C8.94875 2.75066 9.13937 2.82955 9.28 2.97L13.53 7.22C13.6705 7.36062 13.7493 7.55125 13.7493 7.75C13.7493 7.94875 13.6705 8.13937 13.53 8.28L9.28 12.53C9.13774 12.6624 8.94969 12.7345 8.75537 12.7312C8.56105 12.7278 8.3756 12.6492 8.238 12.512C8.10076 12.3744 8.0222 12.1889 8.01884 11.9946C8.01549 11.8003 8.08759 11.6123 8.22 11.47L11.19 8.5H3.75C3.55109 8.5 3.36032 8.42098 3.21967 8.28033C3.07902 8.13967 3 7.94891 3 7.75C3 7.55108 3.07902 7.36032 3.21967 7.21967C3.36032 7.07901 3.55109 7 3.75 7H11.19L8.22 4.03C8.07955 3.88937 8.00066 3.69875 8.00066 3.5C8.00066 3.30125 8.07955 3.11062 8.22 2.97Z" fill="#FFFFFF"/>
</svg>
