<svg width="24" height="24" viewBox="0 0 24 24" fill="none" xmlns="http://www.w3.org/2000/svg" >
<g clip-path="url(#clip0_147_16)">
<path d="M6.31523 6.17599C6.06523 5.53799 6.07523 4.80899 6.18623 4.14199C6.95042 4.37096 7.66812 4.7332 8.30623 5.21199C8.58623 5.42599 8.95323 5.49499 9.29523 5.39199C10.1728 5.12943 11.0842 4.99735 12.0002 4.99999C12.9612 4.99999 13.8742 5.13999 14.7032 5.39099C15.0452 5.49499 15.4122 5.42499 15.6912 5.21099C16.329 4.73231 17.0464 4.37007 17.8102 4.14099C17.9212 4.80799 17.9302 5.53699 17.6822 6.17399C17.5322 6.55799 17.6072 6.99999 17.8902 7.31399C18.6142 8.11699 19.0002 9.03999 19.0002 9.99999C19.0002 12.114 17.0302 14.187 13.8662 14.818C13.0742 14.976 12.7652 15.973 13.3712 16.544C13.7602 16.91 14.0002 17.426 14.0002 18V21C14.0002 21.2652 14.1056 21.5196 14.2931 21.7071C14.4807 21.8946 14.735 22 15.0002 22C15.2654 22 15.5198 21.8946 15.7073 21.7071C15.8949 21.5196 16.0002 21.2652 16.0002 21V18C16.0002 17.43 15.8802 16.888 15.6662 16.397C18.6832 15.35 21.0002 12.993 21.0002 9.99999C21.0002 8.65299 20.5162 7.41499 19.7132 6.37799C19.9232 5.55799 19.9042 4.73199 19.8242 4.09799C19.7532 3.52999 19.6542 2.78599 19.2542 2.34199C18.6592 1.68299 17.6742 2.07099 16.9742 2.30999C16.2233 2.56408 15.5089 2.9154 14.8492 3.35499C13.9183 3.1174 12.961 2.99813 12.0002 2.99999C11.0062 2.99999 10.0472 3.12499 9.14923 3.35599C8.48955 2.91639 7.77514 2.56507 7.02423 2.31099C6.32423 2.07099 5.33823 1.68299 4.74323 2.34199C4.33523 2.79399 4.25023 3.47899 4.17723 4.06099L4.17223 4.09899C4.09223 4.73399 4.07423 5.56099 4.28423 6.38199C3.48423 7.41799 3.00023 8.65399 3.00023 9.99999C3.00023 12.992 5.31723 15.35 8.33423 16.397C8.11585 16.8963 8.00218 17.435 8.00023 17.98L7.83223 18.014C7.11523 18.113 6.65623 18.024 6.34423 17.892C5.58423 17.57 5.19223 16.759 4.71423 16.139C4.41623 15.754 3.98223 15.273 3.31623 15.051C3.1916 15.0095 3.06003 14.9929 2.92901 15.0023C2.79799 15.0117 2.6701 15.0467 2.55263 15.1055C2.3154 15.2242 2.13504 15.4323 2.05123 15.684C1.96742 15.9357 1.98703 16.2104 2.10574 16.4476C2.22445 16.6848 2.43254 16.8652 2.68423 16.949C3.24223 17.135 3.62823 18.091 3.98223 18.515C4.35523 18.963 4.85123 19.431 5.56223 19.733C6.24423 20.023 7.04523 20.126 8.00023 20.009V21C8.00023 21.2652 8.10559 21.5196 8.29312 21.7071C8.48066 21.8946 8.73501 22 9.00023 22C9.26545 22 9.5198 21.8946 9.70734 21.7071C9.89487 21.5196 10.0002 21.2652 10.0002 21V18C10.0002 17.426 10.2402 16.91 10.6292 16.544C11.2362 15.972 10.9262 14.976 10.1342 14.818C6.96923 14.187 5.00023 12.114 5.00023 9.99999C5.00023 9.04199 5.38523 8.11899 6.10823 7.31599C6.39123 7.00199 6.46523 6.55999 6.31523 6.17599Z" fill="black"/>
</g>
<defs>
<clipPath id="clip0_147_16">
<rect width="24" height="24" fill="white"/>
</clipPath>
</defs>
</svg>
