<svg width="20" height="20" viewBox="0 0 20 20" fill="none" xmlns="http://www.w3.org/2000/svg">
<g clip-path="url(#clip0_242_2)">
<path d="M0 0V20H20V0H0ZM8.29167 6.66833H9.79583C9.84667 6.66833 9.88833 6.71 9.88833 6.76083V13.2333C9.88833 13.2842 9.84667 13.3258 9.79667 13.3258H8.29167C8.27956 13.3259 8.26755 13.3237 8.25633 13.3191C8.24511 13.3145 8.23491 13.3078 8.22631 13.2993C8.21771 13.2908 8.21088 13.2806 8.20622 13.2694C8.20156 13.2583 8.19917 13.2463 8.19917 13.2342V10.8425H6.57833V13.2342C6.57833 13.2842 6.53667 13.3258 6.48667 13.3258H4.98C4.96796 13.3258 4.95604 13.3235 4.94492 13.3189C4.9338 13.3142 4.92369 13.3075 4.91518 13.299C4.90667 13.2905 4.89992 13.2804 4.89531 13.2692C4.8907 13.2581 4.88833 13.2462 4.88833 13.2342V6.76C4.88833 6.71 4.93 6.66833 4.98 6.66833H6.485C6.53583 6.66833 6.57667 6.71 6.57667 6.76V9.15083H8.2V6.75917C8.2 6.70917 8.24167 6.66833 8.29167 6.66833ZM10.7908 6.66833H15.6058C15.6567 6.66833 15.6983 6.71 15.6983 6.76V13.2325C15.6986 13.2447 15.6963 13.2568 15.6918 13.2681C15.6873 13.2794 15.6806 13.2897 15.6721 13.2984C15.6635 13.3071 15.6534 13.314 15.6421 13.3187C15.6309 13.3234 15.6188 13.3258 15.6067 13.3258H10.79C10.7657 13.3258 10.7424 13.3162 10.7252 13.299C10.708 13.2818 10.6983 13.2585 10.6983 13.2342V6.75917C10.6983 6.70917 10.74 6.6675 10.79 6.6675L10.7908 6.66833Z" fill="black"/>
</g>
<defs>
<clipPath id="clip0_242_2">
<rect width="20" height="20" fill="white"/>
</clipPath>
</defs>
</svg>
