<svg width="20" height="20" viewBox="0 0 20 20" fill="none" xmlns="http://www.w3.org/2000/svg">
<path d="M10.001 7C9.20535 7 8.44229 7.31607 7.87968 7.87868C7.31707 8.44129 7.001 9.20435 7.001 10C7.001 10.7956 7.31707 11.5587 7.87968 12.1213C8.44229 12.6839 9.20535 13 10.001 13C10.7966 13 11.5597 12.6839 12.1223 12.1213C12.6849 11.5587 13.001 10.7956 13.001 10C13.001 9.20435 12.6849 8.44129 12.1223 7.87868C11.5597 7.31607 10.7966 7 10.001 7ZM10.001 5C11.3271 5 12.5989 5.52678 13.5365 6.46447C14.4742 7.40215 15.001 8.67392 15.001 10C15.001 11.3261 14.4742 12.5979 13.5365 13.5355C12.5989 14.4732 11.3271 15 10.001 15C8.67492 15 7.40315 14.4732 6.46547 13.5355C5.52778 12.5979 5.001 11.3261 5.001 10C5.001 8.67392 5.52778 7.40215 6.46547 6.46447C7.40315 5.52678 8.67492 5 10.001 5ZM16.501 4.75C16.501 5.08152 16.3693 5.39946 16.1349 5.63388C15.9005 5.8683 15.5825 6 15.251 6C14.9195 6 14.6015 5.8683 14.3671 5.63388C14.1327 5.39946 14.001 5.08152 14.001 4.75C14.001 4.41848 14.1327 4.10054 14.3671 3.86612C14.6015 3.6317 14.9195 3.5 15.251 3.5C15.5825 3.5 15.9005 3.6317 16.1349 3.86612C16.3693 4.10054 16.501 4.41848 16.501 4.75ZM10.001 2C7.527 2 7.123 2.007 5.972 2.058C5.188 2.095 4.662 2.2 4.174 2.39C3.76562 2.53994 3.39641 2.78026 3.094 3.093C2.78101 3.3954 2.54035 3.76458 2.39 4.173C2.2 4.663 2.095 5.188 2.059 5.971C2.007 7.075 2 7.461 2 10C2 12.475 2.007 12.878 2.058 14.029C2.095 14.812 2.2 15.339 2.389 15.826C2.559 16.261 2.759 16.574 3.091 16.906C3.428 17.242 3.741 17.443 4.171 17.609C4.665 17.8 5.191 17.906 5.971 17.942C7.075 17.994 7.461 18 10 18C12.475 18 12.878 17.993 14.029 17.942C14.811 17.905 15.337 17.8 15.826 17.611C16.234 17.4603 16.6031 17.2201 16.906 16.908C17.243 16.572 17.444 16.259 17.61 15.828C17.8 15.336 17.906 14.81 17.942 14.028C17.994 12.925 18 12.538 18 10C18 7.526 17.993 7.122 17.942 5.971C17.905 5.189 17.799 4.661 17.61 4.173C17.4593 3.76502 17.219 3.39598 16.907 3.093C16.6047 2.77985 16.2355 2.53917 15.827 2.389C15.337 2.199 14.811 2.094 14.029 2.058C12.926 2.006 12.54 2 10 2M10 0C12.717 0 13.056 0.00999994 14.123 0.0599999C15.187 0.11 15.913 0.277 16.55 0.525C17.21 0.779 17.766 1.123 18.322 1.678C18.8305 2.1779 19.224 2.78259 19.475 3.45C19.722 4.087 19.89 4.813 19.94 5.878C19.987 6.944 20 7.283 20 10C20 12.717 19.99 13.056 19.94 14.122C19.89 15.187 19.722 15.912 19.475 16.55C19.2246 17.2178 18.8311 17.8226 18.322 18.322C17.822 18.8303 17.2173 19.2238 16.55 19.475C15.913 19.722 15.187 19.89 14.123 19.94C13.056 19.987 12.717 20 10 20C7.283 20 6.944 19.99 5.877 19.94C4.813 19.89 4.088 19.722 3.45 19.475C2.78233 19.2245 2.17753 18.8309 1.678 18.322C1.16943 17.8222 0.77596 17.2175 0.525 16.55C0.277 15.913 0.11 15.187 0.0599999 14.122C0.0119999 13.056 0 12.717 0 10C0 7.283 0.00999994 6.944 0.0599999 5.878C0.11 4.813 0.277 4.088 0.525 3.45C0.775236 2.78218 1.1688 2.17732 1.678 1.678C2.17767 1.16923 2.78243 0.775729 3.45 0.525C4.087 0.277 4.812 0.11 5.877 0.0599999C6.945 0.0129999 7.284 0 10.001 0" fill="white"/>
</svg>
