<svg width="20" height="20" viewBox="0 0 20 20" fill="none" xmlns="http://www.w3.org/2000/svg">
<path d="M13.4182 14.9419L11.1713 17.1125C10.7813 17.5031 10.2438 17.6656 9.65129 17.6656C9.05879 17.6656 8.52191 17.5031 8.13129 17.1125L4.52129 13.48C4.13379 13.0894 3.93566 12.5194 3.93566 11.9269C3.93566 11.3319 4.13379 10.7944 4.52129 10.4069L8.12129 6.75437C8.50879 6.36749 9.05879 6.21749 9.65129 6.21749C10.2438 6.21749 10.7813 6.37999 11.1713 6.77062L13.4182 8.94124C13.8475 9.37124 14.5575 9.35562 15.0032 8.90874C15.4457 8.46312 15.4625 7.75374 15.0325 7.32374L12.8619 5.12937C12.2996 4.57476 11.5938 4.18797 10.8238 4.01249L12.8782 1.92937C13.3082 1.49999 13.295 0.789994 12.8488 0.344369C12.4025 -0.101256 11.6932 -0.115006 11.2638 0.311869L2.84566 8.72999C2.02879 9.54999 1.60254 10.6756 1.60254 11.9256C1.60254 13.1731 2.02941 14.3381 2.84566 15.1556L6.46879 18.7881C7.28566 19.605 8.41566 19.9987 9.66566 19.9987C10.9125 19.9987 12.0413 19.5719 12.8588 18.7556L15.0332 16.555C15.4632 16.1281 15.4463 15.4194 15.0007 14.9731C14.555 14.5269 13.845 14.5106 13.4188 14.9406L13.4182 14.9419ZM17.3432 10.8431H8.88629C8.30379 10.8431 7.82879 11.3437 7.82879 11.9625C7.82879 12.5819 8.30379 13.0856 8.88629 13.0856H17.3432C17.9263 13.0856 18.4013 12.5812 18.4013 11.9625C18.4013 11.3444 17.9263 10.8431 17.3432 10.8431Z" fill="white"/>
</svg>
