<svg width="20" height="20" viewBox="0 0 20 20" fill="none" xmlns="http://www.w3.org/2000/svg">
<path d="M13.4182 14.9419L11.1713 17.1125C10.7813 17.5031 10.2438 17.6656 9.65129 17.6656C9.05879 17.6656 8.52191 17.5031 8.13129 17.1125L4.52129 13.48C4.13379 13.0894 3.93566 12.5194 3.93566 11.9269C3.93566 11.3319 4.13379 10.7944 4.52129 10.4069L8.12129 6.7544C8.50879 6.36753 9.05879 6.21752 9.65129 6.21752C10.2438 6.21752 10.7813 6.38003 11.1713 6.77065L13.4182 8.94127C13.8475 9.37127 14.5575 9.35565 15.0032 8.90877C15.4457 8.46315 15.4625 7.75378 15.0325 7.32378L12.8619 5.1294C12.2996 4.57479 11.5938 4.188 10.8238 4.01252L12.8782 1.9294C13.3082 1.50002 13.295 0.790025 12.8488 0.3444C12.4025 -0.101225 11.6932 -0.114975 11.2638 0.3119L2.84566 8.73003C2.02879 9.55003 1.60254 10.6756 1.60254 11.9256C1.60254 13.1731 2.02941 14.3381 2.84566 15.1556L6.46879 18.7881C7.28566 19.605 8.41566 19.9988 9.66566 19.9988C10.9125 19.9988 12.0413 19.5719 12.8588 18.7556L15.0332 16.555C15.4632 16.1281 15.4463 15.4194 15.0007 14.9731C14.555 14.5269 13.845 14.5106 13.4188 14.9406L13.4182 14.9419ZM17.3432 10.8431H8.88629C8.30379 10.8431 7.82879 11.3438 7.82879 11.9625C7.82879 12.5819 8.30379 13.0856 8.88629 13.0856H17.3432C17.9263 13.0856 18.4013 12.5813 18.4013 11.9625C18.4013 11.3444 17.9263 10.8431 17.3432 10.8431Z" fill="black"/>
</svg>
