<svg width="40" height="40" viewBox="0 0 40 40" fill="none" xmlns="http://www.w3.org/2000/svg">
<path d="M31.6667 11.6667H8.33333C7.44928 11.6667 6.60143 12.0178 5.97631 12.643C5.35119 13.2681 5 14.1159 5 15V30C5 30.884 5.35119 31.7319 5.97631 32.357C6.60143 32.9821 7.44928 33.3333 8.33333 33.3333H31.6667C32.5507 33.3333 33.3986 32.9821 34.0237 32.357C34.6488 31.7319 35 30.884 35 30V15C35 14.1159 34.6488 13.2681 34.0237 12.643C33.3986 12.0178 32.5507 11.6667 31.6667 11.6667ZM15.5267 23.86L18.1967 26.1933C18.705 26.6367 19.3483 26.8567 20 26.8567C20.6517 26.8567 21.295 26.635 21.8033 26.1933L24.4733 23.86L24.4117 23.9217L30.4883 29.9983H9.51167L15.5883 23.9217L15.5267 23.86ZM8.33333 28.8217V17.5667L14.3367 22.8183L8.33333 28.8217ZM25.6633 22.8183L31.6667 17.5667V28.8167L25.6633 22.8183ZM31.6667 15V15.35L20.7067 24.94C20.5059 25.1001 20.2568 25.1873 20 25.1873C19.7432 25.1873 19.4941 25.1001 19.2933 24.94L8.33333 15.35V15H31.6667Z" fill="black"/>
</svg>
