<svg width="40" height="40" viewBox="0 0 40 40" fill="none" xmlns="http://www.w3.org/2000/svg">
<path d="M26.9429 31.1579C26.9429 30.3111 27.28 29.4989 27.8801 28.9001C28.4802 28.3013 29.2942 27.9649 30.1429 27.9649H37V31.0667C37 31.9377 36.6532 32.773 36.036 33.3889C35.4187 34.0049 34.5815 34.3509 33.7086 34.3509H30.1429C29.2942 34.3509 28.4802 34.0145 27.8801 33.4157C27.28 32.8169 26.9429 32.0047 26.9429 31.1579ZM5 34.807C5 33.9602 5.33714 33.148 5.93726 32.5492C6.53737 31.9504 7.35131 31.614 8.2 31.614H14.1429V34.7158C14.1429 35.1471 14.0577 35.5741 13.8923 35.9726C13.7269 36.3711 13.4845 36.7331 13.1788 37.0381C12.8732 37.343 12.5103 37.585 12.111 37.75C11.7117 37.9151 11.2837 38 10.8514 38H8.2C7.35131 38 6.53737 37.6636 5.93726 37.0648C5.33714 36.466 5 35.6538 5 34.807Z" stroke="black" stroke-width="4" stroke-linejoin="round"/>
<path d="M14.1431 16.1454L37.0002 10.7456M14.1431 34.3509V8.807L37.0002 3.33331V30.4208" stroke="black" stroke-width="4" stroke-linecap="round" stroke-linejoin="round"/>
<path d="M6.48276 16C7.85395 16 8.96552 14.7688 8.96552 13.25C8.96552 11.7312 7.85395 10.5 6.48276 10.5C5.11157 10.5 4 11.7312 4 13.25C4 14.7688 5.11157 16 6.48276 16Z" fill="black"/>
<path d="M7.86182 5V13.25H8.96526V7.44444L11.9997 8.36111V6.22222L7.86182 5Z" fill="black"/>
<path d="M2.48276 29C3.85395 29 4.96552 27.7688 4.96552 26.25C4.96552 24.7312 3.85395 23.5 2.48276 23.5C1.11157 23.5 0 24.7312 0 26.25C0 27.7688 1.11157 29 2.48276 29Z" fill="black"/>
<path d="M3.86182 18V26.25H4.96526V20.4444L7.99975 21.3611V19.2222L3.86182 18Z" fill="black"/>
</svg>
