<svg width="21" height="21" viewBox="0 0 21 21" fill="none" xmlns="http://www.w3.org/2000/svg">
<path d="M6.64016 5.27L10.5002 9.13L14.3402 5.29C14.425 5.19972 14.5272 5.12749 14.6406 5.07766C14.754 5.02783 14.8763 5.00141 15.0002 5C15.2654 5 15.5197 5.10536 15.7073 5.29289C15.8948 5.48043 16.0002 5.73478 16.0002 6C16.0025 6.1226 15.9797 6.24439 15.9333 6.35788C15.8869 6.47138 15.8178 6.57419 15.7302 6.66L11.8402 10.5L15.7302 14.39C15.895 14.5512 15.9916 14.7696 16.0002 15C16.0002 15.2652 15.8948 15.5196 15.7073 15.7071C15.5197 15.8946 15.2654 16 15.0002 16C14.8727 16.0053 14.7456 15.984 14.6268 15.9375C14.508 15.8911 14.4002 15.8204 14.3102 15.73L10.5002 11.87L6.65016 15.72C6.56567 15.8073 6.46473 15.8769 6.35316 15.925C6.2416 15.9731 6.12163 15.9986 6.00016 16C5.73495 16 5.48059 15.8946 5.29306 15.7071C5.10552 15.5196 5.00016 15.2652 5.00016 15C4.99783 14.8774 5.02058 14.7556 5.06701 14.6421C5.11344 14.5286 5.18257 14.4258 5.27016 14.34L9.16016 10.5L5.27016 6.61C5.10535 6.44876 5.0087 6.23041 5.00016 6C5.00016 5.73478 5.10552 5.48043 5.29306 5.29289C5.48059 5.10536 5.73495 5 6.00016 5C6.24016 5.003 6.47016 5.1 6.64016 5.27Z" fill="white"/>
</svg>
