<svg width="21" height="21" viewBox="0 0 21 21" fill="none" xmlns="http://www.w3.org/2000/svg">
<g clip-path="url(#clip0_135_2)">
<mask id="mask0_135_2" style="mask-type:luminance" maskUnits="userSpaceOnUse" x="-1" y="0" width="21" height="21">
<path d="M20 0H-1V21H20V0Z" fill="white"/>
</mask>
<g mask="url(#mask0_135_2)">
<path d="M14.6667 16H5.33333C5.24493 16 5.16014 15.9521 5.09763 15.8668C5.03512 15.7816 5 15.666 5 15.5454C5 15.4249 5.03512 15.3093 5.09763 15.2241C5.16014 15.1388 5.24493 15.0909 5.33333 15.0909H14.6667C14.7551 15.0909 14.8398 15.1388 14.9023 15.2241C14.9649 15.3093 15 15.4249 15 15.5454C15 15.666 14.9649 15.7816 14.9023 15.8668C14.8398 15.9521 14.7551 16 14.6667 16Z" fill="white"/>
<path d="M14.6667 11.4544H5.33333C5.24493 11.4544 5.16014 11.4064 5.09763 11.3212C5.03512 11.2359 5 11.1203 5 10.9998C5 10.8792 5.03512 10.7636 5.09763 10.6784C5.16014 10.5931 5.24493 10.5452 5.33333 10.5452H14.6667C14.7551 10.5452 14.8398 10.5931 14.9023 10.6784C14.9649 10.7636 15 10.8792 15 10.9998C15 11.1203 14.9649 11.2359 14.9023 11.3212C14.8398 11.4064 14.7551 11.4544 14.6667 11.4544Z" fill="white"/>
<path d="M14.6667 6.9091H5.33333C5.24493 6.9091 5.16014 6.8612 5.09763 6.77596C5.03512 6.69072 5 6.5751 5 6.45455C5 6.33399 5.03512 6.21838 5.09763 6.13313C5.16014 6.04788 5.24493 6 5.33333 6H14.6667C14.7551 6 14.8398 6.04788 14.9023 6.13313C14.9649 6.21838 15 6.33399 15 6.45455C15 6.5751 14.9649 6.69072 14.9023 6.77596C14.8398 6.8612 14.7551 6.9091 14.6667 6.9091Z" fill="white"/>
</g>
</g>
<defs>
<clipPath id="clip0_135_2">
<rect width="21" height="21" fill="white"/>
</clipPath>
</defs>
</svg>
