<svg width="24" height="24" viewBox="0 0 24 24" fill="none" xmlns="http://www.w3.org/2000/svg">
<path d="M14.9101 6.71C14.8176 6.6173 14.7077 6.54375 14.5867 6.49357C14.4658 6.44339 14.3361 6.41756 14.2051 6.41756C14.0742 6.41756 13.9445 6.44339 13.8235 6.49357C13.7025 6.54375 13.5926 6.6173 13.5001 6.71L8.91012 11.3C8.81742 11.3925 8.74387 11.5024 8.69369 11.6234C8.64351 11.7444 8.61768 11.874 8.61768 12.005C8.61768 12.136 8.64351 12.2657 8.69369 12.3866C8.74387 12.5076 8.81742 12.6175 8.91012 12.71L13.5001 17.3C13.5927 17.3926 13.7026 17.466 13.8236 17.5161C13.9445 17.5662 14.0742 17.592 14.2051 17.592C14.3361 17.592 14.4657 17.5662 14.5867 17.5161C14.7076 17.466 14.8175 17.3926 14.9101 17.3C15.0027 17.2074 15.0761 17.0975 15.1262 16.9765C15.1764 16.8556 15.2021 16.7259 15.2021 16.595C15.2021 16.4641 15.1764 16.3344 15.1262 16.2135C15.0761 16.0925 15.0027 15.9826 14.9101 15.89L11.0301 12L14.9101 8.12C15.2901 7.73 15.2901 7.09 14.9101 6.71Z" fill="black"/>
</svg>
