<svg width="40" height="40" viewBox="0 0 40 40" fill="none" xmlns="http://www.w3.org/2000/svg">
<path d="M6.6665 15V31.6667C6.6665 32.5507 7.01769 33.3986 7.64281 34.0237C8.26794 34.6488 9.11578 35 9.99984 35H29.9998C30.8839 35 31.7317 34.6488 32.3569 34.0237C32.982 33.3986 33.3332 32.5507 33.3332 31.6667V15M6.6665 15V11.6667C6.6665 10.7826 7.01769 9.93477 7.64281 9.30964C8.26794 8.68452 9.11578 8.33333 9.99984 8.33333H13.3332M6.6665 15H33.3332M33.3332 15V11.6667C33.3332 10.7826 32.982 9.93477 32.3569 9.30964C31.7317 8.68452 30.8839 8.33333 29.9998 8.33333H26.6665M13.3332 8.33333H26.6665M13.3332 8.33333V5M26.6665 8.33333V5" stroke="black" stroke-width="2" stroke-linecap="round" stroke-linejoin="round"/>
<path d="M25.9966 18.2522C25.767 18.1245 25.5145 18.0432 25.2535 18.0132C24.9925 17.9831 24.7281 18.0047 24.4755 18.0769C24.2229 18.1491 23.987 18.2703 23.7812 18.4337C23.5755 18.5971 23.404 18.7995 23.2766 19.0292L19.5636 25.7112L17.4386 23.5862C17.2541 23.3952 17.0334 23.2428 16.7894 23.138C16.5454 23.0332 16.2829 22.978 16.0174 22.9757C15.7518 22.9734 15.4885 23.024 15.2427 23.1246C14.9969 23.2251 14.7736 23.3736 14.5858 23.5614C14.398 23.7492 14.2495 23.9725 14.1489 24.2183C14.0484 24.4641 13.9978 24.7275 14.0001 24.993C14.0024 25.2586 14.0576 25.521 14.1624 25.765C14.2672 26.009 14.4196 26.2297 14.6106 26.4142L18.6106 30.4142C18.9886 30.7932 19.4986 31.0012 20.0246 31.0012L20.3016 30.9812C20.6081 30.9383 20.9005 30.8249 21.1558 30.6498C21.4111 30.4747 21.6222 30.2428 21.7726 29.9722L26.7726 20.9722C26.9002 20.7427 26.9814 20.4902 27.0115 20.2293C27.0416 19.9684 27.02 19.7041 26.9479 19.4515C26.8759 19.1989 26.7548 18.963 26.5915 18.7572C26.4283 18.5515 26.2261 18.3799 25.9966 18.2522Z" fill="black"/>
</svg>
